<mxfile host="app.diagrams.net" modified="2021-09-13T10:46:50.283Z" agent="5.0 (Macintosh)" etag="At1azGuTkHGTIceECvlT" version="15.2.1" type="github">
  <diagram id="Z7_ssFbh0mrk-NalXPow" name="Page-1">
    <mxGraphModel dx="1906" dy="876" grid="1" gridSize="10" guides="1" tooltips="1" connect="1" arrows="1" fold="1" page="1" pageScale="1" pageWidth="850" pageHeight="1100" math="0" shadow="0">
      <root>
        <mxCell id="0" />
        <mxCell id="1" parent="0" />
        <mxCell id="IVxMjmX394tLIWffqWMJ-1" value="" style="rounded=0;whiteSpace=wrap;html=1;strokeWidth=0;fillColor=#b1ddf0;strokeColor=#10739e;" vertex="1" parent="1">
          <mxGeometry x="-10" y="97" width="150" height="53" as="geometry" />
        </mxCell>
        <mxCell id="IVxMjmX394tLIWffqWMJ-2" style="edgeStyle=orthogonalEdgeStyle;rounded=0;orthogonalLoop=1;jettySize=auto;html=1;" edge="1" parent="1" source="IVxMjmX394tLIWffqWMJ-3" target="IVxMjmX394tLIWffqWMJ-6">
          <mxGeometry relative="1" as="geometry" />
        </mxCell>
        <mxCell id="IVxMjmX394tLIWffqWMJ-3" value="START" style="ellipse;fillColor=#b0e3e6;strokeColor=#0e8088;strokeWidth=0;" vertex="1" parent="1">
          <mxGeometry x="452.5" y="47" width="75" height="50" as="geometry" />
        </mxCell>
        <mxCell id="IVxMjmX394tLIWffqWMJ-4" style="edgeStyle=orthogonalEdgeStyle;rounded=0;orthogonalLoop=1;jettySize=auto;html=1;" edge="1" parent="1" source="IVxMjmX394tLIWffqWMJ-6" target="IVxMjmX394tLIWffqWMJ-10">
          <mxGeometry relative="1" as="geometry" />
        </mxCell>
        <mxCell id="IVxMjmX394tLIWffqWMJ-5" style="edgeStyle=orthogonalEdgeStyle;rounded=0;orthogonalLoop=1;jettySize=auto;html=1;" edge="1" parent="1" source="IVxMjmX394tLIWffqWMJ-6" target="IVxMjmX394tLIWffqWMJ-8">
          <mxGeometry relative="1" as="geometry" />
        </mxCell>
        <mxCell id="IVxMjmX394tLIWffqWMJ-6" value="Build cosmos" style="html=1;align=center;verticalAlign=top;rounded=1;absoluteArcSize=1;arcSize=10;dashed=0;fillColor=#b1ddf0;strokeColor=#10739e;strokeWidth=0;" vertex="1" parent="1">
          <mxGeometry x="410" y="140" width="160" height="60" as="geometry" />
        </mxCell>
        <mxCell id="IVxMjmX394tLIWffqWMJ-7" style="edgeStyle=orthogonalEdgeStyle;rounded=0;orthogonalLoop=1;jettySize=auto;html=1;" edge="1" parent="1" source="IVxMjmX394tLIWffqWMJ-8" target="IVxMjmX394tLIWffqWMJ-12">
          <mxGeometry relative="1" as="geometry" />
        </mxCell>
        <mxCell id="IVxMjmX394tLIWffqWMJ-8" value="Install Test environment: &lt;br&gt;Infinity server/Constellation service&amp;nbsp;" style="html=1;align=center;verticalAlign=top;rounded=1;absoluteArcSize=1;arcSize=10;dashed=0;fillColor=#b1ddf0;strokeColor=#10739e;strokeWidth=0;" vertex="1" parent="1">
          <mxGeometry x="250" y="260" width="220" height="80" as="geometry" />
        </mxCell>
        <mxCell id="IVxMjmX394tLIWffqWMJ-9" style="edgeStyle=orthogonalEdgeStyle;rounded=0;orthogonalLoop=1;jettySize=auto;html=1;entryX=0.5;entryY=0;entryDx=0;entryDy=0;strokeColor=#67AB9F;strokeWidth=2;" edge="1" parent="1" source="IVxMjmX394tLIWffqWMJ-10" target="IVxMjmX394tLIWffqWMJ-17">
          <mxGeometry relative="1" as="geometry">
            <Array as="points">
              <mxPoint x="635" y="470" />
              <mxPoint x="360" y="470" />
            </Array>
          </mxGeometry>
        </mxCell>
        <mxCell id="IVxMjmX394tLIWffqWMJ-10" value="Unit tests" style="html=1;align=center;verticalAlign=top;rounded=1;absoluteArcSize=1;arcSize=10;dashed=0;fillColor=#b1ddf0;strokeColor=#10739e;strokeWidth=0;" vertex="1" parent="1">
          <mxGeometry x="530" y="260" width="210" height="80" as="geometry" />
        </mxCell>
        <mxCell id="IVxMjmX394tLIWffqWMJ-11" style="edgeStyle=orthogonalEdgeStyle;rounded=0;orthogonalLoop=1;jettySize=auto;html=1;" edge="1" parent="1" source="IVxMjmX394tLIWffqWMJ-12" target="IVxMjmX394tLIWffqWMJ-17">
          <mxGeometry relative="1" as="geometry" />
        </mxCell>
        <mxCell id="IVxMjmX394tLIWffqWMJ-12" value="Run integration tests" style="html=1;align=center;verticalAlign=top;rounded=1;absoluteArcSize=1;arcSize=10;dashed=0;fillColor=#b1ddf0;strokeColor=#10739e;strokeWidth=0;" vertex="1" parent="1">
          <mxGeometry x="250" y="370" width="220" height="80" as="geometry" />
        </mxCell>
        <mxCell id="IVxMjmX394tLIWffqWMJ-13" style="edgeStyle=orthogonalEdgeStyle;rounded=0;orthogonalLoop=1;jettySize=auto;html=1;entryX=0.5;entryY=0;entryDx=0;entryDy=0;strokeColor=#FF0080;strokeWidth=2;" edge="1" parent="1" source="IVxMjmX394tLIWffqWMJ-17" target="IVxMjmX394tLIWffqWMJ-20">
          <mxGeometry relative="1" as="geometry" />
        </mxCell>
        <mxCell id="IVxMjmX394tLIWffqWMJ-14" value="Fail" style="edgeLabel;html=1;align=center;verticalAlign=middle;resizable=0;points=[];" vertex="1" connectable="0" parent="IVxMjmX394tLIWffqWMJ-13">
          <mxGeometry x="-0.1667" y="-2" relative="1" as="geometry">
            <mxPoint as="offset" />
          </mxGeometry>
        </mxCell>
        <mxCell id="IVxMjmX394tLIWffqWMJ-15" style="edgeStyle=orthogonalEdgeStyle;rounded=0;orthogonalLoop=1;jettySize=auto;html=1;entryX=0;entryY=0.5;entryDx=0;entryDy=0;strokeColor=#67AB9F;strokeWidth=2;" edge="1" parent="1" source="IVxMjmX394tLIWffqWMJ-17" target="IVxMjmX394tLIWffqWMJ-22">
          <mxGeometry relative="1" as="geometry" />
        </mxCell>
        <mxCell id="IVxMjmX394tLIWffqWMJ-16" value="Success" style="edgeLabel;html=1;align=center;verticalAlign=middle;resizable=0;points=[];" vertex="1" connectable="0" parent="IVxMjmX394tLIWffqWMJ-15">
          <mxGeometry x="-0.2471" y="2" relative="1" as="geometry">
            <mxPoint as="offset" />
          </mxGeometry>
        </mxCell>
        <mxCell id="IVxMjmX394tLIWffqWMJ-17" value="Test result" style="rhombus;fillColor=#b1ddf0;strokeColor=#10739e;strokeWidth=0;" vertex="1" parent="1">
          <mxGeometry x="250" y="500" width="220" height="110" as="geometry" />
        </mxCell>
        <mxCell id="IVxMjmX394tLIWffqWMJ-18" style="edgeStyle=orthogonalEdgeStyle;rounded=0;orthogonalLoop=1;jettySize=auto;html=1;strokeColor=#FF0080;strokeWidth=2;" edge="1" parent="1" source="IVxMjmX394tLIWffqWMJ-20" target="IVxMjmX394tLIWffqWMJ-27">
          <mxGeometry relative="1" as="geometry" />
        </mxCell>
        <mxCell id="IVxMjmX394tLIWffqWMJ-19" value="Build Failed" style="edgeLabel;html=1;align=center;verticalAlign=middle;resizable=0;points=[];" vertex="1" connectable="0" parent="IVxMjmX394tLIWffqWMJ-18">
          <mxGeometry x="-0.1667" y="2" relative="1" as="geometry">
            <mxPoint as="offset" />
          </mxGeometry>
        </mxCell>
        <mxCell id="IVxMjmX394tLIWffqWMJ-20" value="Debug or notify constellation &lt;br&gt;components squard" style="html=1;align=center;verticalAlign=top;rounded=1;absoluteArcSize=1;arcSize=10;dashed=0;fillColor=#b1ddf0;strokeColor=#10739e;strokeWidth=0;" vertex="1" parent="1">
          <mxGeometry x="250" y="670" width="220" height="80" as="geometry" />
        </mxCell>
        <mxCell id="IVxMjmX394tLIWffqWMJ-21" style="edgeStyle=orthogonalEdgeStyle;rounded=0;orthogonalLoop=1;jettySize=auto;html=1;strokeColor=#67AB9F;strokeWidth=2;" edge="1" parent="1" source="IVxMjmX394tLIWffqWMJ-22" target="IVxMjmX394tLIWffqWMJ-24">
          <mxGeometry relative="1" as="geometry" />
        </mxCell>
        <mxCell id="IVxMjmX394tLIWffqWMJ-22" value="Publish build to Artifactory" style="html=1;align=center;verticalAlign=top;rounded=1;absoluteArcSize=1;arcSize=10;dashed=0;fillColor=#b1ddf0;strokeColor=#10739e;strokeWidth=0;" vertex="1" parent="1">
          <mxGeometry x="555" y="525" width="160" height="60" as="geometry" />
        </mxCell>
        <mxCell id="IVxMjmX394tLIWffqWMJ-23" style="edgeStyle=orthogonalEdgeStyle;rounded=0;orthogonalLoop=1;jettySize=auto;html=1;strokeColor=#67AB9F;strokeWidth=2;" edge="1" parent="1" source="IVxMjmX394tLIWffqWMJ-24" target="IVxMjmX394tLIWffqWMJ-26">
          <mxGeometry relative="1" as="geometry" />
        </mxCell>
        <mxCell id="IVxMjmX394tLIWffqWMJ-24" value="Notify constellation&lt;br&gt;components squard" style="html=1;align=center;verticalAlign=top;rounded=1;absoluteArcSize=1;arcSize=10;dashed=0;fillColor=#b1ddf0;strokeColor=#10739e;strokeWidth=0;" vertex="1" parent="1">
          <mxGeometry x="540" y="670" width="190" height="80" as="geometry" />
        </mxCell>
        <mxCell id="IVxMjmX394tLIWffqWMJ-25" style="edgeStyle=orthogonalEdgeStyle;rounded=0;orthogonalLoop=1;jettySize=auto;html=1;entryX=1;entryY=0.5;entryDx=0;entryDy=0;exitX=0.5;exitY=1;exitDx=0;exitDy=0;strokeColor=#67AB9F;strokeWidth=2;" edge="1" parent="1" source="IVxMjmX394tLIWffqWMJ-26" target="IVxMjmX394tLIWffqWMJ-27">
          <mxGeometry relative="1" as="geometry" />
        </mxCell>
        <mxCell id="IVxMjmX394tLIWffqWMJ-26" value="Adopt in Nebula" style="html=1;align=center;verticalAlign=top;rounded=1;absoluteArcSize=1;arcSize=10;dashed=0;fillColor=#fad7ac;strokeColor=#b46504;strokeWidth=0;" vertex="1" parent="1">
          <mxGeometry x="540" y="790" width="190" height="80" as="geometry" />
        </mxCell>
        <mxCell id="IVxMjmX394tLIWffqWMJ-27" value="END" style="ellipse;fillColor=#fad9d5;strokeColor=#ae4132;strokeWidth=0;" vertex="1" parent="1">
          <mxGeometry x="322.5" y="870" width="75" height="50" as="geometry" />
        </mxCell>
        <mxCell id="IVxMjmX394tLIWffqWMJ-28" value="" style="shape=image;verticalLabelPosition=bottom;verticalAlign=top;imageAspect=0;aspect=fixed;image=data:image/svg+xml,PHN2ZyB4bWxucz0iaHR0cDovL3d3dy53My5vcmcvMjAwMC9zdmciIHhtbG5zOnhsaW5rPSJodHRwOi8vd3d3LnczLm9yZy8xOTk5L3hsaW5rIiB2ZXJzaW9uPSIxLjEiIGlkPSJMYXllcl8xIiB4PSIwcHgiIHk9IjBweCIgdmlld0JveD0iMC4wMDM0MjU0NTY1ODM0OTk5MDg0IDAgMzkuNjk2NTcxMzUwMDk3NjU2IDM3LjEwMDAwMjI4ODgxODM2IiBzdHlsZT0iZW5hYmxlLWJhY2tncm91bmQ6bmV3IDAgMCAzOS41IDM3LjE7IiB4bWw6c3BhY2U9InByZXNlcnZlIiB3aWR0aD0iMzkuNjk2NTcxMzUwMDk3NjU2IiBoZWlnaHQ9IjM3LjEwMDAwMjI4ODgxODM2Ij4mI3hhOzxzdHlsZSB0eXBlPSJ0ZXh0L2NzcyI+JiN4YTsJLnN0MHtmaWxsOiMxMEE1QUM7fSYjeGE7PC9zdHlsZT4mI3hhOzxnIGlkPSJMYXllcl8yXzFfIj4mI3hhOwk8ZyBpZD0iTGF5ZXJfMS0yIj4mI3hhOwkJPHBhdGggY2xhc3M9InN0MCIgZD0iTTI5LjQsMTkuMmMtMi43LTEuNi02LjEtMC44LTcuOCwxLjhjLTEuNiwyLjctMC44LDYuMSwxLjgsNy44YzAuOSwwLjYsMS45LDAuOCwzLDAuOGMwLjQsMCwwLjktMC4xLDEuMy0wLjEmIzEwOyYjOTsmIzk7JiM5O2MzLTAuNyw0LjktMy44LDQuMi02LjhDMzEuNSwyMS4zLDMwLjYsMjAsMjkuNCwxOS4yTDI5LjQsMTkuMnogTTI3LjMsMjcuNmMtMiwwLjUtMy45LTAuNy00LjQtMi43czAuNy0zLjksMi43LTQuNCYjMTA7JiM5OyYjOTsmIzk7YzAuOS0wLjIsMS45LTAuMSwyLjgsMC41YzAuOCwwLjUsMS40LDEuMywxLjcsMi4zQzMwLjUsMjUuMSwyOS4zLDI3LjEsMjcuMywyNy42QzI3LjMsMjcuNiwyNy4zLDI3LjYsMjcuMywyNy42eiIvPiYjeGE7CQk8cGF0aCBjbGFzcz0ic3QwIiBkPSJNMzguOCwyMy43TDM2LjUsMjNjMC0wLjQtMC4xLTAuOS0wLjItMS4zYy0wLjEtMC40LTAuMi0wLjgtMC40LTEuM2wxLjgtMS43YzAuNC0wLjQsMC40LTEsMC0xLjRjMCwwLDAsMCwwLDAmIzEwOyYjOTsmIzk7JiM5O2wtMy45LTQuMmMtMC40LTAuNC0xLTAuNC0xLjQsMGwtMS44LDEuN2MtMC44LTAuNC0xLjYtMC43LTIuNS0wLjlsLTAuNS0yLjRjLTAuMS0wLjMtMC4yLTAuNS0wLjUtMC42Yy0wLjItMC4xLTAuNS0wLjItMC44LTAuMSYjMTA7JiM5OyYjOTsmIzk7bC01LjYsMS4zYy0wLjMsMC4xLTAuNSwwLjItMC42LDAuNGMtMC4xLDAuMi0wLjIsMC41LTAuMSwwLjhsMC42LDIuNGMtMC43LDAuNS0xLjQsMS4xLTEuOSwxLjhsLTIuMy0wLjdjLTAuMy0wLjEtMC41LDAtMC44LDAuMSYjMTA7JiM5OyYjOTsmIzk7Yy0wLjIsMC4xLTAuNCwwLjMtMC41LDAuNmwtMS42LDUuNWMtMC4yLDAuNSwwLjEsMS4xLDAuNywxLjJjMCwwLDAsMCwwLDBsMi4zLDAuN2MwLDAuNCwwLjEsMC45LDAuMiwxLjNjMC4xLDAuNCwwLjMsMC45LDAuNSwxLjMmIzEwOyYjOTsmIzk7JiM5O2wtMS44LDEuN2MtMC4yLDAuMi0wLjMsMC40LTAuMywwLjdjMCwwLjMsMC4xLDAuNSwwLjMsMC43bDMuOSw0LjJjMC40LDAuNCwxLDAuNCwxLjQsMGMwLDAsMCwwLDAsMGwxLjgtMS43JiMxMDsmIzk7JiM5OyYjOTtjMC44LDAuNCwxLjYsMC42LDIuNSwwLjhsMC42LDIuNGMwLjEsMC41LDAuNSwwLjgsMSwwLjhjMC4xLDAsMC4yLDAsMC4yLDBsNS42LTEuM2MwLjUtMC4xLDAuOS0wLjcsMC43LTEuMmMwLDAsMCwwLDAsMGwtMC42LTIuMyYjMTA7JiM5OyYjOTsmIzk7YzAuNy0wLjUsMS40LTEuMSwxLjktMS44bDIuMywwLjdjMC4zLDAuMSwwLjUsMC4xLDAuOC0wLjFjMC4yLTAuMSwwLjQtMC4zLDAuNS0wLjZsMS43LTUuNUMzOS43LDI0LjQsMzkuNCwyMy44LDM4LjgsMjMuNyYjMTA7JiM5OyYjOTsmIzk7QzM4LjgsMjMuNywzOC44LDIzLjcsMzguOCwyMy43eiBNMzYuMiwyOC45bC0yLTAuNmMtMC40LTAuMS0wLjksMC0xLjEsMC40Yy0wLjYsMC45LTEuNCwxLjctMi40LDIuMmMtMC40LDAuMi0wLjYsMC43LTAuNSwxLjEmIzEwOyYjOTsmIzk7JiM5O2wwLjUsMi4xbC0zLjYsMC45bC0wLjUtMi4xYy0wLjEtMC40LTAuNS0wLjctMC45LTAuOGMtMS4xLTAuMS0yLjItMC40LTMuMS0wLjljLTAuMS0wLjEtMC4zLTAuMS0wLjUtMC4xYy0wLjMsMC0wLjUsMC4xLTAuNywwLjMmIzEwOyYjOTsmIzk7JiM5O2wtMS41LDEuNUwxNy4zLDMwbDEuNS0xLjVjMC4zLTAuMywwLjQtMC44LDAuMi0xLjFjLTAuNS0xLTAuNy0yLjEtMC44LTMuMmMwLTAuNC0wLjMtMC44LTAuNy0wLjlsLTItMC42bDEuMS0zLjZsMiwwLjYmIzEwOyYjOTsmIzk7JiM5O2MwLjQsMC4xLDAuOSwwLDEuMS0wLjRjMC42LTAuOSwxLjQtMS43LDIuNC0yLjJjMC40LTAuMiwwLjYtMC43LDAuNS0xLjFsLTAuNS0ybDMuNi0wLjlsMC41LDIuMWMwLjEsMC40LDAuNSwwLjcsMC45LDAuOCYjMTA7JiM5OyYjOTsmIzk7YzEuMSwwLjEsMi4yLDAuNCwzLjEsMC45YzAuNCwwLjIsMC44LDAuMSwxLjItMC4ybDEuNi0xLjVsMi41LDIuN0wzNCwxOS40Yy0wLjMsMC4zLTAuNCwwLjgtMC4yLDEuMWMwLjIsMC41LDAuNCwxLDAuNSwxLjUmIzEwOyYjOTsmIzk7JiM5O2MwLjEsMC41LDAuMiwxLjEsMC4yLDEuNmMwLDAuNCwwLjMsMC44LDAuNywwLjlsMiwwLjZMMzYuMiwyOC45eiIvPiYjeGE7CQk8cGF0aCBjbGFzcz0ic3QwIiBkPSJNOS4xLDUuMkM2LjgsNS4zLDUsNy4zLDUuMSw5LjdjMC4xLDEuMSwwLjYsMi4yLDEuNCwyLjljMC44LDAuNywxLjgsMS4xLDIuOSwxLjFoMC4yYzEuMiwwLDIuMi0wLjYsMy0xLjQmIzEwOyYjOTsmIzk7JiM5O2MxLjYtMS44LDEuNC00LjUtMC4zLTYuMUMxMS40LDUuNSwxMC4zLDUuMSw5LjEsNS4yeiBNMTEuMSwxMWMtMC44LDAuOS0yLjMsMS0zLjIsMC4yYzAsMCwwLDAsMCwwYy0wLjktMC45LTEtMi4zLTAuMS0zLjMmIzEwOyYjOTsmIzk7JiM5O2MwLjQtMC40LDAuOS0wLjcsMS41LTAuN2gwLjFjMS4zLDAsMi4zLDEuMSwyLjIsMi40QzExLjcsMTAuMSwxMS41LDEwLjYsMTEuMSwxMUwxMS4xLDExeiIvPiYjeGE7CQk8cGF0aCBjbGFzcz0ic3QwIiBkPSJNMTQuMSwxNS4zbDEuNCwwLjdjMC4yLDAuMSwwLjUsMC4xLDAuOCwwLjFjMC4yLTAuMSwwLjUtMC4zLDAuNi0wLjVsMS45LTMuNmMwLjItMC41LDAuMS0xLjEtMC40LTEuMyYjMTA7JiM5OyYjOTsmIzk7bC0xLjQtMC43YzAtMC4zLDAtMC41LDAtMC44YzAtMC4zLDAtMC41LTAuMS0wLjhMMTgsNy40YzAuNS0wLjMsMC42LTAuOSwwLjMtMS40YzAsMCwwLDAsMCwwbC0yLjItMy40Yy0wLjMtMC41LTAuOS0wLjYtMS40LTAuMyYjMTA7JiM5OyYjOTsmIzk7bC0xLjMsMC44Yy0wLjQtMC4zLTAuOS0wLjUtMS40LTAuN0wxMiwwLjljMC0wLjMtMC4xLTAuNS0wLjMtMC43QzExLjUsMC4xLDExLjIsMCwxMC45LDBMNi44LDAuMmMtMC41LDAtMSwwLjUtMC45LDFMNiwyLjgmIzEwOyYjOTsmIzk7JiM5O0M1LjUsMy4xLDUuMSwzLjMsNC43LDMuN0wzLjMsM0MzLjEsMi45LDIuOCwyLjksMi41LDIuOUMyLjMsMywyLjEsMy4yLDIsMy40TDAuMSw3LjFjLTAuMiwwLjUtMC4xLDEuMSwwLjQsMS4zbDEuNCwwLjcmIzEwOyYjOTsmIzk7JiM5O2MwLDAuMywwLDAuNSwwLDAuOGMwLDAuMywwLDAuNSwwLjEsMC44bC0xLjMsMC44Yy0wLjIsMC4xLTAuNCwwLjQtMC40LDAuNmMtMC4xLDAuMywwLDAuNSwwLjEsMC44bDIuMiwzLjQmIzEwOyYjOTsmIzk7JiM5O0MzLDE2LjgsMy42LDE2LjksNCwxNi42YzAsMCwwLDAsMCwwbDEuMy0wLjhjMC40LDAuMywwLjksMC41LDEuNCwwLjdMNi44LDE4YzAsMC41LDAuNSwwLjksMSwwLjloMC4xbDQuMS0wLjImIzEwOyYjOTsmIzk7JiM5O2MwLjMsMCwwLjUtMC4xLDAuNy0wLjNjMC4yLTAuMiwwLjMtMC41LDAuMi0wLjdsLTAuMS0xLjVDMTMuMywxNS45LDEzLjcsMTUuNiwxNC4xLDE1LjN6IE0xMS40LDE0LjZjLTAuNCwwLjItMC43LDAuNi0wLjYsMSYjMTA7JiM5OyYjOTsmIzk7bDAuMSwxLjJsLTIuMSwwLjFsLTAuMS0xLjJjMC0wLjQtMC4zLTAuOC0wLjctMC45Yy0wLjctMC4yLTEuNC0wLjUtMi0xYy0wLjMtMC4zLTAuOC0wLjMtMS4yLTAuMWwtMSwwLjdsLTEuMi0xLjhsMS0wLjcmIzEwOyYjOTsmIzk7JiM5O2MwLjQtMC4yLDAuNS0wLjcsMC40LTEuMUM0LDEwLjUsMy45LDEwLjEsMy45LDkuOGwwLDBjMC0wLjQsMC0wLjcsMC4xLTEuMWMwLTAuNC0wLjItMC44LTAuNS0xTDIuMyw3LjFsMS0xLjlsMS4xLDAuNiYjMTA7JiM5OyYjOTsmIzk7QzQuOCw2LDUuMyw1LjksNS42LDUuNmMwLjUtMC41LDEuMS0wLjksMS44LTEuMkM3LjgsNC4yLDgsMy44LDgsMy40TDcuOSwyLjJMMTAsMmwwLjEsMS4yYzAsMC40LDAuMywwLjgsMC43LDAuOSYjMTA7JiM5OyYjOTsmIzk7YzAuNywwLjIsMS40LDAuNSwyLDFjMC4zLDAuMywwLjgsMC4zLDEuMiwwLjFsMS0wLjdsMS4xLDEuOGwtMSwwLjdjLTAuNCwwLjItMC41LDAuNy0wLjQsMS4xYzAuMSwwLjQsMC4xLDAuNywwLjIsMS4xJiMxMDsmIzk7JiM5OyYjOTtjMCwwLjQsMCwwLjcsMCwxLjFjMCwwLjQsMC4yLDAuOCwwLjUsMWwxLjEsMC42bC0wLjksMS45bC0xLjEtMC42Yy0wLjQtMC4yLTAuOS0wLjEtMS4yLDAuMkMxMi44LDEzLjksMTIuMSwxNC4zLDExLjQsMTQuNnoiLz4mI3hhOwk8L2c+JiN4YTs8L2c+JiN4YTs8L3N2Zz4=;strokeWidth=0;" vertex="1" parent="1">
          <mxGeometry x="550" y="120" width="40" height="37" as="geometry" />
        </mxCell>
        <mxCell id="IVxMjmX394tLIWffqWMJ-29" value="" style="shape=image;verticalLabelPosition=bottom;verticalAlign=top;imageAspect=0;aspect=fixed;image=data:image/svg+xml,PHN2ZyB4bWxucz0iaHR0cDovL3d3dy53My5vcmcvMjAwMC9zdmciIHhtbG5zOnhsaW5rPSJodHRwOi8vd3d3LnczLm9yZy8xOTk5L3hsaW5rIiB2ZXJzaW9uPSIxLjEiIGlkPSJMYXllcl8xIiB4PSIwcHgiIHk9IjBweCIgdmlld0JveD0iMC4wMDM0MjU0NTY1ODM0OTk5MDg0IDAgMzkuNjk2NTcxMzUwMDk3NjU2IDM3LjEwMDAwMjI4ODgxODM2IiBzdHlsZT0iZW5hYmxlLWJhY2tncm91bmQ6bmV3IDAgMCAzOS41IDM3LjE7IiB4bWw6c3BhY2U9InByZXNlcnZlIiB3aWR0aD0iMzkuNjk2NTcxMzUwMDk3NjU2IiBoZWlnaHQ9IjM3LjEwMDAwMjI4ODgxODM2Ij4mI3hhOzxzdHlsZSB0eXBlPSJ0ZXh0L2NzcyI+JiN4YTsJLnN0MHtmaWxsOiMxMEE1QUM7fSYjeGE7PC9zdHlsZT4mI3hhOzxnIGlkPSJMYXllcl8yXzFfIj4mI3hhOwk8ZyBpZD0iTGF5ZXJfMS0yIj4mI3hhOwkJPHBhdGggY2xhc3M9InN0MCIgZD0iTTI5LjQsMTkuMmMtMi43LTEuNi02LjEtMC44LTcuOCwxLjhjLTEuNiwyLjctMC44LDYuMSwxLjgsNy44YzAuOSwwLjYsMS45LDAuOCwzLDAuOGMwLjQsMCwwLjktMC4xLDEuMy0wLjEmIzEwOyYjOTsmIzk7JiM5O2MzLTAuNyw0LjktMy44LDQuMi02LjhDMzEuNSwyMS4zLDMwLjYsMjAsMjkuNCwxOS4yTDI5LjQsMTkuMnogTTI3LjMsMjcuNmMtMiwwLjUtMy45LTAuNy00LjQtMi43czAuNy0zLjksMi43LTQuNCYjMTA7JiM5OyYjOTsmIzk7YzAuOS0wLjIsMS45LTAuMSwyLjgsMC41YzAuOCwwLjUsMS40LDEuMywxLjcsMi4zQzMwLjUsMjUuMSwyOS4zLDI3LjEsMjcuMywyNy42QzI3LjMsMjcuNiwyNy4zLDI3LjYsMjcuMywyNy42eiIvPiYjeGE7CQk8cGF0aCBjbGFzcz0ic3QwIiBkPSJNMzguOCwyMy43TDM2LjUsMjNjMC0wLjQtMC4xLTAuOS0wLjItMS4zYy0wLjEtMC40LTAuMi0wLjgtMC40LTEuM2wxLjgtMS43YzAuNC0wLjQsMC40LTEsMC0xLjRjMCwwLDAsMCwwLDAmIzEwOyYjOTsmIzk7JiM5O2wtMy45LTQuMmMtMC40LTAuNC0xLTAuNC0xLjQsMGwtMS44LDEuN2MtMC44LTAuNC0xLjYtMC43LTIuNS0wLjlsLTAuNS0yLjRjLTAuMS0wLjMtMC4yLTAuNS0wLjUtMC42Yy0wLjItMC4xLTAuNS0wLjItMC44LTAuMSYjMTA7JiM5OyYjOTsmIzk7bC01LjYsMS4zYy0wLjMsMC4xLTAuNSwwLjItMC42LDAuNGMtMC4xLDAuMi0wLjIsMC41LTAuMSwwLjhsMC42LDIuNGMtMC43LDAuNS0xLjQsMS4xLTEuOSwxLjhsLTIuMy0wLjdjLTAuMy0wLjEtMC41LDAtMC44LDAuMSYjMTA7JiM5OyYjOTsmIzk7Yy0wLjIsMC4xLTAuNCwwLjMtMC41LDAuNmwtMS42LDUuNWMtMC4yLDAuNSwwLjEsMS4xLDAuNywxLjJjMCwwLDAsMCwwLDBsMi4zLDAuN2MwLDAuNCwwLjEsMC45LDAuMiwxLjNjMC4xLDAuNCwwLjMsMC45LDAuNSwxLjMmIzEwOyYjOTsmIzk7JiM5O2wtMS44LDEuN2MtMC4yLDAuMi0wLjMsMC40LTAuMywwLjdjMCwwLjMsMC4xLDAuNSwwLjMsMC43bDMuOSw0LjJjMC40LDAuNCwxLDAuNCwxLjQsMGMwLDAsMCwwLDAsMGwxLjgtMS43JiMxMDsmIzk7JiM5OyYjOTtjMC44LDAuNCwxLjYsMC42LDIuNSwwLjhsMC42LDIuNGMwLjEsMC41LDAuNSwwLjgsMSwwLjhjMC4xLDAsMC4yLDAsMC4yLDBsNS42LTEuM2MwLjUtMC4xLDAuOS0wLjcsMC43LTEuMmMwLDAsMCwwLDAsMGwtMC42LTIuMyYjMTA7JiM5OyYjOTsmIzk7YzAuNy0wLjUsMS40LTEuMSwxLjktMS44bDIuMywwLjdjMC4zLDAuMSwwLjUsMC4xLDAuOC0wLjFjMC4yLTAuMSwwLjQtMC4zLDAuNS0wLjZsMS43LTUuNUMzOS43LDI0LjQsMzkuNCwyMy44LDM4LjgsMjMuNyYjMTA7JiM5OyYjOTsmIzk7QzM4LjgsMjMuNywzOC44LDIzLjcsMzguOCwyMy43eiBNMzYuMiwyOC45bC0yLTAuNmMtMC40LTAuMS0wLjksMC0xLjEsMC40Yy0wLjYsMC45LTEuNCwxLjctMi40LDIuMmMtMC40LDAuMi0wLjYsMC43LTAuNSwxLjEmIzEwOyYjOTsmIzk7JiM5O2wwLjUsMi4xbC0zLjYsMC45bC0wLjUtMi4xYy0wLjEtMC40LTAuNS0wLjctMC45LTAuOGMtMS4xLTAuMS0yLjItMC40LTMuMS0wLjljLTAuMS0wLjEtMC4zLTAuMS0wLjUtMC4xYy0wLjMsMC0wLjUsMC4xLTAuNywwLjMmIzEwOyYjOTsmIzk7JiM5O2wtMS41LDEuNUwxNy4zLDMwbDEuNS0xLjVjMC4zLTAuMywwLjQtMC44LDAuMi0xLjFjLTAuNS0xLTAuNy0yLjEtMC44LTMuMmMwLTAuNC0wLjMtMC44LTAuNy0wLjlsLTItMC42bDEuMS0zLjZsMiwwLjYmIzEwOyYjOTsmIzk7JiM5O2MwLjQsMC4xLDAuOSwwLDEuMS0wLjRjMC42LTAuOSwxLjQtMS43LDIuNC0yLjJjMC40LTAuMiwwLjYtMC43LDAuNS0xLjFsLTAuNS0ybDMuNi0wLjlsMC41LDIuMWMwLjEsMC40LDAuNSwwLjcsMC45LDAuOCYjMTA7JiM5OyYjOTsmIzk7YzEuMSwwLjEsMi4yLDAuNCwzLjEsMC45YzAuNCwwLjIsMC44LDAuMSwxLjItMC4ybDEuNi0xLjVsMi41LDIuN0wzNCwxOS40Yy0wLjMsMC4zLTAuNCwwLjgtMC4yLDEuMWMwLjIsMC41LDAuNCwxLDAuNSwxLjUmIzEwOyYjOTsmIzk7JiM5O2MwLjEsMC41LDAuMiwxLjEsMC4yLDEuNmMwLDAuNCwwLjMsMC44LDAuNywwLjlsMiwwLjZMMzYuMiwyOC45eiIvPiYjeGE7CQk8cGF0aCBjbGFzcz0ic3QwIiBkPSJNOS4xLDUuMkM2LjgsNS4zLDUsNy4zLDUuMSw5LjdjMC4xLDEuMSwwLjYsMi4yLDEuNCwyLjljMC44LDAuNywxLjgsMS4xLDIuOSwxLjFoMC4yYzEuMiwwLDIuMi0wLjYsMy0xLjQmIzEwOyYjOTsmIzk7JiM5O2MxLjYtMS44LDEuNC00LjUtMC4zLTYuMUMxMS40LDUuNSwxMC4zLDUuMSw5LjEsNS4yeiBNMTEuMSwxMWMtMC44LDAuOS0yLjMsMS0zLjIsMC4yYzAsMCwwLDAsMCwwYy0wLjktMC45LTEtMi4zLTAuMS0zLjMmIzEwOyYjOTsmIzk7JiM5O2MwLjQtMC40LDAuOS0wLjcsMS41LTAuN2gwLjFjMS4zLDAsMi4zLDEuMSwyLjIsMi40QzExLjcsMTAuMSwxMS41LDEwLjYsMTEuMSwxMUwxMS4xLDExeiIvPiYjeGE7CQk8cGF0aCBjbGFzcz0ic3QwIiBkPSJNMTQuMSwxNS4zbDEuNCwwLjdjMC4yLDAuMSwwLjUsMC4xLDAuOCwwLjFjMC4yLTAuMSwwLjUtMC4zLDAuNi0wLjVsMS45LTMuNmMwLjItMC41LDAuMS0xLjEtMC40LTEuMyYjMTA7JiM5OyYjOTsmIzk7bC0xLjQtMC43YzAtMC4zLDAtMC41LDAtMC44YzAtMC4zLDAtMC41LTAuMS0wLjhMMTgsNy40YzAuNS0wLjMsMC42LTAuOSwwLjMtMS40YzAsMCwwLDAsMCwwbC0yLjItMy40Yy0wLjMtMC41LTAuOS0wLjYtMS40LTAuMyYjMTA7JiM5OyYjOTsmIzk7bC0xLjMsMC44Yy0wLjQtMC4zLTAuOS0wLjUtMS40LTAuN0wxMiwwLjljMC0wLjMtMC4xLTAuNS0wLjMtMC43QzExLjUsMC4xLDExLjIsMCwxMC45LDBMNi44LDAuMmMtMC41LDAtMSwwLjUtMC45LDFMNiwyLjgmIzEwOyYjOTsmIzk7JiM5O0M1LjUsMy4xLDUuMSwzLjMsNC43LDMuN0wzLjMsM0MzLjEsMi45LDIuOCwyLjksMi41LDIuOUMyLjMsMywyLjEsMy4yLDIsMy40TDAuMSw3LjFjLTAuMiwwLjUtMC4xLDEuMSwwLjQsMS4zbDEuNCwwLjcmIzEwOyYjOTsmIzk7JiM5O2MwLDAuMywwLDAuNSwwLDAuOGMwLDAuMywwLDAuNSwwLjEsMC44bC0xLjMsMC44Yy0wLjIsMC4xLTAuNCwwLjQtMC40LDAuNmMtMC4xLDAuMywwLDAuNSwwLjEsMC44bDIuMiwzLjQmIzEwOyYjOTsmIzk7JiM5O0MzLDE2LjgsMy42LDE2LjksNCwxNi42YzAsMCwwLDAsMCwwbDEuMy0wLjhjMC40LDAuMywwLjksMC41LDEuNCwwLjdMNi44LDE4YzAsMC41LDAuNSwwLjksMSwwLjloMC4xbDQuMS0wLjImIzEwOyYjOTsmIzk7JiM5O2MwLjMsMCwwLjUtMC4xLDAuNy0wLjNjMC4yLTAuMiwwLjMtMC41LDAuMi0wLjdsLTAuMS0xLjVDMTMuMywxNS45LDEzLjcsMTUuNiwxNC4xLDE1LjN6IE0xMS40LDE0LjZjLTAuNCwwLjItMC43LDAuNi0wLjYsMSYjMTA7JiM5OyYjOTsmIzk7bDAuMSwxLjJsLTIuMSwwLjFsLTAuMS0xLjJjMC0wLjQtMC4zLTAuOC0wLjctMC45Yy0wLjctMC4yLTEuNC0wLjUtMi0xYy0wLjMtMC4zLTAuOC0wLjMtMS4yLTAuMWwtMSwwLjdsLTEuMi0xLjhsMS0wLjcmIzEwOyYjOTsmIzk7JiM5O2MwLjQtMC4yLDAuNS0wLjcsMC40LTEuMUM0LDEwLjUsMy45LDEwLjEsMy45LDkuOGwwLDBjMC0wLjQsMC0wLjcsMC4xLTEuMWMwLTAuNC0wLjItMC44LTAuNS0xTDIuMyw3LjFsMS0xLjlsMS4xLDAuNiYjMTA7JiM5OyYjOTsmIzk7QzQuOCw2LDUuMyw1LjksNS42LDUuNmMwLjUtMC41LDEuMS0wLjksMS44LTEuMkM3LjgsNC4yLDgsMy44LDgsMy40TDcuOSwyLjJMMTAsMmwwLjEsMS4yYzAsMC40LDAuMywwLjgsMC43LDAuOSYjMTA7JiM5OyYjOTsmIzk7YzAuNywwLjIsMS40LDAuNSwyLDFjMC4zLDAuMywwLjgsMC4zLDEuMiwwLjFsMS0wLjdsMS4xLDEuOGwtMSwwLjdjLTAuNCwwLjItMC41LDAuNy0wLjQsMS4xYzAuMSwwLjQsMC4xLDAuNywwLjIsMS4xJiMxMDsmIzk7JiM5OyYjOTtjMCwwLjQsMCwwLjcsMCwxLjFjMCwwLjQsMC4yLDAuOCwwLjUsMWwxLjEsMC42bC0wLjksMS45bC0xLjEtMC42Yy0wLjQtMC4yLTAuOS0wLjEtMS4yLDAuMkMxMi44LDEzLjksMTIuMSwxNC4zLDExLjQsMTQuNnoiLz4mI3hhOwk8L2c+JiN4YTs8L2c+JiN4YTs8L3N2Zz4=;strokeWidth=0;" vertex="1" parent="1">
          <mxGeometry x="715" y="250" width="40" height="37" as="geometry" />
        </mxCell>
        <mxCell id="IVxMjmX394tLIWffqWMJ-30" value="" style="shape=image;verticalLabelPosition=bottom;verticalAlign=top;imageAspect=0;aspect=fixed;image=data:image/svg+xml,PHN2ZyB4bWxucz0iaHR0cDovL3d3dy53My5vcmcvMjAwMC9zdmciIHhtbG5zOnhsaW5rPSJodHRwOi8vd3d3LnczLm9yZy8xOTk5L3hsaW5rIiB2ZXJzaW9uPSIxLjEiIGlkPSJMYXllcl8xIiB4PSIwcHgiIHk9IjBweCIgdmlld0JveD0iMC4wMDM0MjU0NTY1ODM0OTk5MDg0IDAgMzkuNjk2NTcxMzUwMDk3NjU2IDM3LjEwMDAwMjI4ODgxODM2IiBzdHlsZT0iZW5hYmxlLWJhY2tncm91bmQ6bmV3IDAgMCAzOS41IDM3LjE7IiB4bWw6c3BhY2U9InByZXNlcnZlIiB3aWR0aD0iMzkuNjk2NTcxMzUwMDk3NjU2IiBoZWlnaHQ9IjM3LjEwMDAwMjI4ODgxODM2Ij4mI3hhOzxzdHlsZSB0eXBlPSJ0ZXh0L2NzcyI+JiN4YTsJLnN0MHtmaWxsOiMxMEE1QUM7fSYjeGE7PC9zdHlsZT4mI3hhOzxnIGlkPSJMYXllcl8yXzFfIj4mI3hhOwk8ZyBpZD0iTGF5ZXJfMS0yIj4mI3hhOwkJPHBhdGggY2xhc3M9InN0MCIgZD0iTTI5LjQsMTkuMmMtMi43LTEuNi02LjEtMC44LTcuOCwxLjhjLTEuNiwyLjctMC44LDYuMSwxLjgsNy44YzAuOSwwLjYsMS45LDAuOCwzLDAuOGMwLjQsMCwwLjktMC4xLDEuMy0wLjEmIzEwOyYjOTsmIzk7JiM5O2MzLTAuNyw0LjktMy44LDQuMi02LjhDMzEuNSwyMS4zLDMwLjYsMjAsMjkuNCwxOS4yTDI5LjQsMTkuMnogTTI3LjMsMjcuNmMtMiwwLjUtMy45LTAuNy00LjQtMi43czAuNy0zLjksMi43LTQuNCYjMTA7JiM5OyYjOTsmIzk7YzAuOS0wLjIsMS45LTAuMSwyLjgsMC41YzAuOCwwLjUsMS40LDEuMywxLjcsMi4zQzMwLjUsMjUuMSwyOS4zLDI3LjEsMjcuMywyNy42QzI3LjMsMjcuNiwyNy4zLDI3LjYsMjcuMywyNy42eiIvPiYjeGE7CQk8cGF0aCBjbGFzcz0ic3QwIiBkPSJNMzguOCwyMy43TDM2LjUsMjNjMC0wLjQtMC4xLTAuOS0wLjItMS4zYy0wLjEtMC40LTAuMi0wLjgtMC40LTEuM2wxLjgtMS43YzAuNC0wLjQsMC40LTEsMC0xLjRjMCwwLDAsMCwwLDAmIzEwOyYjOTsmIzk7JiM5O2wtMy45LTQuMmMtMC40LTAuNC0xLTAuNC0xLjQsMGwtMS44LDEuN2MtMC44LTAuNC0xLjYtMC43LTIuNS0wLjlsLTAuNS0yLjRjLTAuMS0wLjMtMC4yLTAuNS0wLjUtMC42Yy0wLjItMC4xLTAuNS0wLjItMC44LTAuMSYjMTA7JiM5OyYjOTsmIzk7bC01LjYsMS4zYy0wLjMsMC4xLTAuNSwwLjItMC42LDAuNGMtMC4xLDAuMi0wLjIsMC41LTAuMSwwLjhsMC42LDIuNGMtMC43LDAuNS0xLjQsMS4xLTEuOSwxLjhsLTIuMy0wLjdjLTAuMy0wLjEtMC41LDAtMC44LDAuMSYjMTA7JiM5OyYjOTsmIzk7Yy0wLjIsMC4xLTAuNCwwLjMtMC41LDAuNmwtMS42LDUuNWMtMC4yLDAuNSwwLjEsMS4xLDAuNywxLjJjMCwwLDAsMCwwLDBsMi4zLDAuN2MwLDAuNCwwLjEsMC45LDAuMiwxLjNjMC4xLDAuNCwwLjMsMC45LDAuNSwxLjMmIzEwOyYjOTsmIzk7JiM5O2wtMS44LDEuN2MtMC4yLDAuMi0wLjMsMC40LTAuMywwLjdjMCwwLjMsMC4xLDAuNSwwLjMsMC43bDMuOSw0LjJjMC40LDAuNCwxLDAuNCwxLjQsMGMwLDAsMCwwLDAsMGwxLjgtMS43JiMxMDsmIzk7JiM5OyYjOTtjMC44LDAuNCwxLjYsMC42LDIuNSwwLjhsMC42LDIuNGMwLjEsMC41LDAuNSwwLjgsMSwwLjhjMC4xLDAsMC4yLDAsMC4yLDBsNS42LTEuM2MwLjUtMC4xLDAuOS0wLjcsMC43LTEuMmMwLDAsMCwwLDAsMGwtMC42LTIuMyYjMTA7JiM5OyYjOTsmIzk7YzAuNy0wLjUsMS40LTEuMSwxLjktMS44bDIuMywwLjdjMC4zLDAuMSwwLjUsMC4xLDAuOC0wLjFjMC4yLTAuMSwwLjQtMC4zLDAuNS0wLjZsMS43LTUuNUMzOS43LDI0LjQsMzkuNCwyMy44LDM4LjgsMjMuNyYjMTA7JiM5OyYjOTsmIzk7QzM4LjgsMjMuNywzOC44LDIzLjcsMzguOCwyMy43eiBNMzYuMiwyOC45bC0yLTAuNmMtMC40LTAuMS0wLjksMC0xLjEsMC40Yy0wLjYsMC45LTEuNCwxLjctMi40LDIuMmMtMC40LDAuMi0wLjYsMC43LTAuNSwxLjEmIzEwOyYjOTsmIzk7JiM5O2wwLjUsMi4xbC0zLjYsMC45bC0wLjUtMi4xYy0wLjEtMC40LTAuNS0wLjctMC45LTAuOGMtMS4xLTAuMS0yLjItMC40LTMuMS0wLjljLTAuMS0wLjEtMC4zLTAuMS0wLjUtMC4xYy0wLjMsMC0wLjUsMC4xLTAuNywwLjMmIzEwOyYjOTsmIzk7JiM5O2wtMS41LDEuNUwxNy4zLDMwbDEuNS0xLjVjMC4zLTAuMywwLjQtMC44LDAuMi0xLjFjLTAuNS0xLTAuNy0yLjEtMC44LTMuMmMwLTAuNC0wLjMtMC44LTAuNy0wLjlsLTItMC42bDEuMS0zLjZsMiwwLjYmIzEwOyYjOTsmIzk7JiM5O2MwLjQsMC4xLDAuOSwwLDEuMS0wLjRjMC42LTAuOSwxLjQtMS43LDIuNC0yLjJjMC40LTAuMiwwLjYtMC43LDAuNS0xLjFsLTAuNS0ybDMuNi0wLjlsMC41LDIuMWMwLjEsMC40LDAuNSwwLjcsMC45LDAuOCYjMTA7JiM5OyYjOTsmIzk7YzEuMSwwLjEsMi4yLDAuNCwzLjEsMC45YzAuNCwwLjIsMC44LDAuMSwxLjItMC4ybDEuNi0xLjVsMi41LDIuN0wzNCwxOS40Yy0wLjMsMC4zLTAuNCwwLjgtMC4yLDEuMWMwLjIsMC41LDAuNCwxLDAuNSwxLjUmIzEwOyYjOTsmIzk7JiM5O2MwLjEsMC41LDAuMiwxLjEsMC4yLDEuNmMwLDAuNCwwLjMsMC44LDAuNywwLjlsMiwwLjZMMzYuMiwyOC45eiIvPiYjeGE7CQk8cGF0aCBjbGFzcz0ic3QwIiBkPSJNOS4xLDUuMkM2LjgsNS4zLDUsNy4zLDUuMSw5LjdjMC4xLDEuMSwwLjYsMi4yLDEuNCwyLjljMC44LDAuNywxLjgsMS4xLDIuOSwxLjFoMC4yYzEuMiwwLDIuMi0wLjYsMy0xLjQmIzEwOyYjOTsmIzk7JiM5O2MxLjYtMS44LDEuNC00LjUtMC4zLTYuMUMxMS40LDUuNSwxMC4zLDUuMSw5LjEsNS4yeiBNMTEuMSwxMWMtMC44LDAuOS0yLjMsMS0zLjIsMC4yYzAsMCwwLDAsMCwwYy0wLjktMC45LTEtMi4zLTAuMS0zLjMmIzEwOyYjOTsmIzk7JiM5O2MwLjQtMC40LDAuOS0wLjcsMS41LTAuN2gwLjFjMS4zLDAsMi4zLDEuMSwyLjIsMi40QzExLjcsMTAuMSwxMS41LDEwLjYsMTEuMSwxMUwxMS4xLDExeiIvPiYjeGE7CQk8cGF0aCBjbGFzcz0ic3QwIiBkPSJNMTQuMSwxNS4zbDEuNCwwLjdjMC4yLDAuMSwwLjUsMC4xLDAuOCwwLjFjMC4yLTAuMSwwLjUtMC4zLDAuNi0wLjVsMS45LTMuNmMwLjItMC41LDAuMS0xLjEtMC40LTEuMyYjMTA7JiM5OyYjOTsmIzk7bC0xLjQtMC43YzAtMC4zLDAtMC41LDAtMC44YzAtMC4zLDAtMC41LTAuMS0wLjhMMTgsNy40YzAuNS0wLjMsMC42LTAuOSwwLjMtMS40YzAsMCwwLDAsMCwwbC0yLjItMy40Yy0wLjMtMC41LTAuOS0wLjYtMS40LTAuMyYjMTA7JiM5OyYjOTsmIzk7bC0xLjMsMC44Yy0wLjQtMC4zLTAuOS0wLjUtMS40LTAuN0wxMiwwLjljMC0wLjMtMC4xLTAuNS0wLjMtMC43QzExLjUsMC4xLDExLjIsMCwxMC45LDBMNi44LDAuMmMtMC41LDAtMSwwLjUtMC45LDFMNiwyLjgmIzEwOyYjOTsmIzk7JiM5O0M1LjUsMy4xLDUuMSwzLjMsNC43LDMuN0wzLjMsM0MzLjEsMi45LDIuOCwyLjksMi41LDIuOUMyLjMsMywyLjEsMy4yLDIsMy40TDAuMSw3LjFjLTAuMiwwLjUtMC4xLDEuMSwwLjQsMS4zbDEuNCwwLjcmIzEwOyYjOTsmIzk7JiM5O2MwLDAuMywwLDAuNSwwLDAuOGMwLDAuMywwLDAuNSwwLjEsMC44bC0xLjMsMC44Yy0wLjIsMC4xLTAuNCwwLjQtMC40LDAuNmMtMC4xLDAuMywwLDAuNSwwLjEsMC44bDIuMiwzLjQmIzEwOyYjOTsmIzk7JiM5O0MzLDE2LjgsMy42LDE2LjksNCwxNi42YzAsMCwwLDAsMCwwbDEuMy0wLjhjMC40LDAuMywwLjksMC41LDEuNCwwLjdMNi44LDE4YzAsMC41LDAuNSwwLjksMSwwLjloMC4xbDQuMS0wLjImIzEwOyYjOTsmIzk7JiM5O2MwLjMsMCwwLjUtMC4xLDAuNy0wLjNjMC4yLTAuMiwwLjMtMC41LDAuMi0wLjdsLTAuMS0xLjVDMTMuMywxNS45LDEzLjcsMTUuNiwxNC4xLDE1LjN6IE0xMS40LDE0LjZjLTAuNCwwLjItMC43LDAuNi0wLjYsMSYjMTA7JiM5OyYjOTsmIzk7bDAuMSwxLjJsLTIuMSwwLjFsLTAuMS0xLjJjMC0wLjQtMC4zLTAuOC0wLjctMC45Yy0wLjctMC4yLTEuNC0wLjUtMi0xYy0wLjMtMC4zLTAuOC0wLjMtMS4yLTAuMWwtMSwwLjdsLTEuMi0xLjhsMS0wLjcmIzEwOyYjOTsmIzk7JiM5O2MwLjQtMC4yLDAuNS0wLjcsMC40LTEuMUM0LDEwLjUsMy45LDEwLjEsMy45LDkuOGwwLDBjMC0wLjQsMC0wLjcsMC4xLTEuMWMwLTAuNC0wLjItMC44LTAuNS0xTDIuMyw3LjFsMS0xLjlsMS4xLDAuNiYjMTA7JiM5OyYjOTsmIzk7QzQuOCw2LDUuMyw1LjksNS42LDUuNmMwLjUtMC41LDEuMS0wLjksMS44LTEuMkM3LjgsNC4yLDgsMy44LDgsMy40TDcuOSwyLjJMMTAsMmwwLjEsMS4yYzAsMC40LDAuMywwLjgsMC43LDAuOSYjMTA7JiM5OyYjOTsmIzk7YzAuNywwLjIsMS40LDAuNSwyLDFjMC4zLDAuMywwLjgsMC4zLDEuMiwwLjFsMS0wLjdsMS4xLDEuOGwtMSwwLjdjLTAuNCwwLjItMC41LDAuNy0wLjQsMS4xYzAuMSwwLjQsMC4xLDAuNywwLjIsMS4xJiMxMDsmIzk7JiM5OyYjOTtjMCwwLjQsMCwwLjcsMCwxLjFjMCwwLjQsMC4yLDAuOCwwLjUsMWwxLjEsMC42bC0wLjksMS45bC0xLjEtMC42Yy0wLjQtMC4yLTAuOS0wLjEtMS4yLDAuMkMxMi44LDEzLjksMTIuMSwxNC4zLDExLjQsMTQuNnoiLz4mI3hhOwk8L2c+JiN4YTs8L2c+JiN4YTs8L3N2Zz4=;strokeWidth=0;" vertex="1" parent="1">
          <mxGeometry x="450" y="240" width="40" height="37" as="geometry" />
        </mxCell>
        <mxCell id="IVxMjmX394tLIWffqWMJ-31" value="" style="shape=image;verticalLabelPosition=bottom;verticalAlign=top;imageAspect=0;aspect=fixed;image=data:image/svg+xml,PHN2ZyB4bWxucz0iaHR0cDovL3d3dy53My5vcmcvMjAwMC9zdmciIHhtbG5zOnhsaW5rPSJodHRwOi8vd3d3LnczLm9yZy8xOTk5L3hsaW5rIiB2ZXJzaW9uPSIxLjEiIGlkPSJMYXllcl8xIiB4PSIwcHgiIHk9IjBweCIgdmlld0JveD0iMC4wMDM0MjU0NTY1ODM0OTk5MDg0IDAgMzkuNjk2NTcxMzUwMDk3NjU2IDM3LjEwMDAwMjI4ODgxODM2IiBzdHlsZT0iZW5hYmxlLWJhY2tncm91bmQ6bmV3IDAgMCAzOS41IDM3LjE7IiB4bWw6c3BhY2U9InByZXNlcnZlIiB3aWR0aD0iMzkuNjk2NTcxMzUwMDk3NjU2IiBoZWlnaHQ9IjM3LjEwMDAwMjI4ODgxODM2Ij4mI3hhOzxzdHlsZSB0eXBlPSJ0ZXh0L2NzcyI+JiN4YTsJLnN0MHtmaWxsOiMxMEE1QUM7fSYjeGE7PC9zdHlsZT4mI3hhOzxnIGlkPSJMYXllcl8yXzFfIj4mI3hhOwk8ZyBpZD0iTGF5ZXJfMS0yIj4mI3hhOwkJPHBhdGggY2xhc3M9InN0MCIgZD0iTTI5LjQsMTkuMmMtMi43LTEuNi02LjEtMC44LTcuOCwxLjhjLTEuNiwyLjctMC44LDYuMSwxLjgsNy44YzAuOSwwLjYsMS45LDAuOCwzLDAuOGMwLjQsMCwwLjktMC4xLDEuMy0wLjEmIzEwOyYjOTsmIzk7JiM5O2MzLTAuNyw0LjktMy44LDQuMi02LjhDMzEuNSwyMS4zLDMwLjYsMjAsMjkuNCwxOS4yTDI5LjQsMTkuMnogTTI3LjMsMjcuNmMtMiwwLjUtMy45LTAuNy00LjQtMi43czAuNy0zLjksMi43LTQuNCYjMTA7JiM5OyYjOTsmIzk7YzAuOS0wLjIsMS45LTAuMSwyLjgsMC41YzAuOCwwLjUsMS40LDEuMywxLjcsMi4zQzMwLjUsMjUuMSwyOS4zLDI3LjEsMjcuMywyNy42QzI3LjMsMjcuNiwyNy4zLDI3LjYsMjcuMywyNy42eiIvPiYjeGE7CQk8cGF0aCBjbGFzcz0ic3QwIiBkPSJNMzguOCwyMy43TDM2LjUsMjNjMC0wLjQtMC4xLTAuOS0wLjItMS4zYy0wLjEtMC40LTAuMi0wLjgtMC40LTEuM2wxLjgtMS43YzAuNC0wLjQsMC40LTEsMC0xLjRjMCwwLDAsMCwwLDAmIzEwOyYjOTsmIzk7JiM5O2wtMy45LTQuMmMtMC40LTAuNC0xLTAuNC0xLjQsMGwtMS44LDEuN2MtMC44LTAuNC0xLjYtMC43LTIuNS0wLjlsLTAuNS0yLjRjLTAuMS0wLjMtMC4yLTAuNS0wLjUtMC42Yy0wLjItMC4xLTAuNS0wLjItMC44LTAuMSYjMTA7JiM5OyYjOTsmIzk7bC01LjYsMS4zYy0wLjMsMC4xLTAuNSwwLjItMC42LDAuNGMtMC4xLDAuMi0wLjIsMC41LTAuMSwwLjhsMC42LDIuNGMtMC43LDAuNS0xLjQsMS4xLTEuOSwxLjhsLTIuMy0wLjdjLTAuMy0wLjEtMC41LDAtMC44LDAuMSYjMTA7JiM5OyYjOTsmIzk7Yy0wLjIsMC4xLTAuNCwwLjMtMC41LDAuNmwtMS42LDUuNWMtMC4yLDAuNSwwLjEsMS4xLDAuNywxLjJjMCwwLDAsMCwwLDBsMi4zLDAuN2MwLDAuNCwwLjEsMC45LDAuMiwxLjNjMC4xLDAuNCwwLjMsMC45LDAuNSwxLjMmIzEwOyYjOTsmIzk7JiM5O2wtMS44LDEuN2MtMC4yLDAuMi0wLjMsMC40LTAuMywwLjdjMCwwLjMsMC4xLDAuNSwwLjMsMC43bDMuOSw0LjJjMC40LDAuNCwxLDAuNCwxLjQsMGMwLDAsMCwwLDAsMGwxLjgtMS43JiMxMDsmIzk7JiM5OyYjOTtjMC44LDAuNCwxLjYsMC42LDIuNSwwLjhsMC42LDIuNGMwLjEsMC41LDAuNSwwLjgsMSwwLjhjMC4xLDAsMC4yLDAsMC4yLDBsNS42LTEuM2MwLjUtMC4xLDAuOS0wLjcsMC43LTEuMmMwLDAsMCwwLDAsMGwtMC42LTIuMyYjMTA7JiM5OyYjOTsmIzk7YzAuNy0wLjUsMS40LTEuMSwxLjktMS44bDIuMywwLjdjMC4zLDAuMSwwLjUsMC4xLDAuOC0wLjFjMC4yLTAuMSwwLjQtMC4zLDAuNS0wLjZsMS43LTUuNUMzOS43LDI0LjQsMzkuNCwyMy44LDM4LjgsMjMuNyYjMTA7JiM5OyYjOTsmIzk7QzM4LjgsMjMuNywzOC44LDIzLjcsMzguOCwyMy43eiBNMzYuMiwyOC45bC0yLTAuNmMtMC40LTAuMS0wLjksMC0xLjEsMC40Yy0wLjYsMC45LTEuNCwxLjctMi40LDIuMmMtMC40LDAuMi0wLjYsMC43LTAuNSwxLjEmIzEwOyYjOTsmIzk7JiM5O2wwLjUsMi4xbC0zLjYsMC45bC0wLjUtMi4xYy0wLjEtMC40LTAuNS0wLjctMC45LTAuOGMtMS4xLTAuMS0yLjItMC40LTMuMS0wLjljLTAuMS0wLjEtMC4zLTAuMS0wLjUtMC4xYy0wLjMsMC0wLjUsMC4xLTAuNywwLjMmIzEwOyYjOTsmIzk7JiM5O2wtMS41LDEuNUwxNy4zLDMwbDEuNS0xLjVjMC4zLTAuMywwLjQtMC44LDAuMi0xLjFjLTAuNS0xLTAuNy0yLjEtMC44LTMuMmMwLTAuNC0wLjMtMC44LTAuNy0wLjlsLTItMC42bDEuMS0zLjZsMiwwLjYmIzEwOyYjOTsmIzk7JiM5O2MwLjQsMC4xLDAuOSwwLDEuMS0wLjRjMC42LTAuOSwxLjQtMS43LDIuNC0yLjJjMC40LTAuMiwwLjYtMC43LDAuNS0xLjFsLTAuNS0ybDMuNi0wLjlsMC41LDIuMWMwLjEsMC40LDAuNSwwLjcsMC45LDAuOCYjMTA7JiM5OyYjOTsmIzk7YzEuMSwwLjEsMi4yLDAuNCwzLjEsMC45YzAuNCwwLjIsMC44LDAuMSwxLjItMC4ybDEuNi0xLjVsMi41LDIuN0wzNCwxOS40Yy0wLjMsMC4zLTAuNCwwLjgtMC4yLDEuMWMwLjIsMC41LDAuNCwxLDAuNSwxLjUmIzEwOyYjOTsmIzk7JiM5O2MwLjEsMC41LDAuMiwxLjEsMC4yLDEuNmMwLDAuNCwwLjMsMC44LDAuNywwLjlsMiwwLjZMMzYuMiwyOC45eiIvPiYjeGE7CQk8cGF0aCBjbGFzcz0ic3QwIiBkPSJNOS4xLDUuMkM2LjgsNS4zLDUsNy4zLDUuMSw5LjdjMC4xLDEuMSwwLjYsMi4yLDEuNCwyLjljMC44LDAuNywxLjgsMS4xLDIuOSwxLjFoMC4yYzEuMiwwLDIuMi0wLjYsMy0xLjQmIzEwOyYjOTsmIzk7JiM5O2MxLjYtMS44LDEuNC00LjUtMC4zLTYuMUMxMS40LDUuNSwxMC4zLDUuMSw5LjEsNS4yeiBNMTEuMSwxMWMtMC44LDAuOS0yLjMsMS0zLjIsMC4yYzAsMCwwLDAsMCwwYy0wLjktMC45LTEtMi4zLTAuMS0zLjMmIzEwOyYjOTsmIzk7JiM5O2MwLjQtMC40LDAuOS0wLjcsMS41LTAuN2gwLjFjMS4zLDAsMi4zLDEuMSwyLjIsMi40QzExLjcsMTAuMSwxMS41LDEwLjYsMTEuMSwxMUwxMS4xLDExeiIvPiYjeGE7CQk8cGF0aCBjbGFzcz0ic3QwIiBkPSJNMTQuMSwxNS4zbDEuNCwwLjdjMC4yLDAuMSwwLjUsMC4xLDAuOCwwLjFjMC4yLTAuMSwwLjUtMC4zLDAuNi0wLjVsMS45LTMuNmMwLjItMC41LDAuMS0xLjEtMC40LTEuMyYjMTA7JiM5OyYjOTsmIzk7bC0xLjQtMC43YzAtMC4zLDAtMC41LDAtMC44YzAtMC4zLDAtMC41LTAuMS0wLjhMMTgsNy40YzAuNS0wLjMsMC42LTAuOSwwLjMtMS40YzAsMCwwLDAsMCwwbC0yLjItMy40Yy0wLjMtMC41LTAuOS0wLjYtMS40LTAuMyYjMTA7JiM5OyYjOTsmIzk7bC0xLjMsMC44Yy0wLjQtMC4zLTAuOS0wLjUtMS40LTAuN0wxMiwwLjljMC0wLjMtMC4xLTAuNS0wLjMtMC43QzExLjUsMC4xLDExLjIsMCwxMC45LDBMNi44LDAuMmMtMC41LDAtMSwwLjUtMC45LDFMNiwyLjgmIzEwOyYjOTsmIzk7JiM5O0M1LjUsMy4xLDUuMSwzLjMsNC43LDMuN0wzLjMsM0MzLjEsMi45LDIuOCwyLjksMi41LDIuOUMyLjMsMywyLjEsMy4yLDIsMy40TDAuMSw3LjFjLTAuMiwwLjUtMC4xLDEuMSwwLjQsMS4zbDEuNCwwLjcmIzEwOyYjOTsmIzk7JiM5O2MwLDAuMywwLDAuNSwwLDAuOGMwLDAuMywwLDAuNSwwLjEsMC44bC0xLjMsMC44Yy0wLjIsMC4xLTAuNCwwLjQtMC40LDAuNmMtMC4xLDAuMywwLDAuNSwwLjEsMC44bDIuMiwzLjQmIzEwOyYjOTsmIzk7JiM5O0MzLDE2LjgsMy42LDE2LjksNCwxNi42YzAsMCwwLDAsMCwwbDEuMy0wLjhjMC40LDAuMywwLjksMC41LDEuNCwwLjdMNi44LDE4YzAsMC41LDAuNSwwLjksMSwwLjloMC4xbDQuMS0wLjImIzEwOyYjOTsmIzk7JiM5O2MwLjMsMCwwLjUtMC4xLDAuNy0wLjNjMC4yLTAuMiwwLjMtMC41LDAuMi0wLjdsLTAuMS0xLjVDMTMuMywxNS45LDEzLjcsMTUuNiwxNC4xLDE1LjN6IE0xMS40LDE0LjZjLTAuNCwwLjItMC43LDAuNi0wLjYsMSYjMTA7JiM5OyYjOTsmIzk7bDAuMSwxLjJsLTIuMSwwLjFsLTAuMS0xLjJjMC0wLjQtMC4zLTAuOC0wLjctMC45Yy0wLjctMC4yLTEuNC0wLjUtMi0xYy0wLjMtMC4zLTAuOC0wLjMtMS4yLTAuMWwtMSwwLjdsLTEuMi0xLjhsMS0wLjcmIzEwOyYjOTsmIzk7JiM5O2MwLjQtMC4yLDAuNS0wLjcsMC40LTEuMUM0LDEwLjUsMy45LDEwLjEsMy45LDkuOGwwLDBjMC0wLjQsMC0wLjcsMC4xLTEuMWMwLTAuNC0wLjItMC44LTAuNS0xTDIuMyw3LjFsMS0xLjlsMS4xLDAuNiYjMTA7JiM5OyYjOTsmIzk7QzQuOCw2LDUuMyw1LjksNS42LDUuNmMwLjUtMC41LDEuMS0wLjksMS44LTEuMkM3LjgsNC4yLDgsMy44LDgsMy40TDcuOSwyLjJMMTAsMmwwLjEsMS4yYzAsMC40LDAuMywwLjgsMC43LDAuOSYjMTA7JiM5OyYjOTsmIzk7YzAuNywwLjIsMS40LDAuNSwyLDFjMC4zLDAuMywwLjgsMC4zLDEuMiwwLjFsMS0wLjdsMS4xLDEuOGwtMSwwLjdjLTAuNCwwLjItMC41LDAuNy0wLjQsMS4xYzAuMSwwLjQsMC4xLDAuNywwLjIsMS4xJiMxMDsmIzk7JiM5OyYjOTtjMCwwLjQsMCwwLjcsMCwxLjFjMCwwLjQsMC4yLDAuOCwwLjUsMWwxLjEsMC42bC0wLjksMS45bC0xLjEtMC42Yy0wLjQtMC4yLTAuOS0wLjEtMS4yLDAuMkMxMi44LDEzLjksMTIuMSwxNC4zLDExLjQsMTQuNnoiLz4mI3hhOwk8L2c+JiN4YTs8L2c+JiN4YTs8L3N2Zz4=;strokeWidth=0;" vertex="1" parent="1">
          <mxGeometry x="440" y="350" width="40" height="37" as="geometry" />
        </mxCell>
        <mxCell id="IVxMjmX394tLIWffqWMJ-32" value="" style="shape=image;verticalLabelPosition=bottom;verticalAlign=top;imageAspect=0;aspect=fixed;image=data:image/svg+xml,PHN2ZyB4bWxucz0iaHR0cDovL3d3dy53My5vcmcvMjAwMC9zdmciIHhtbG5zOnhsaW5rPSJodHRwOi8vd3d3LnczLm9yZy8xOTk5L3hsaW5rIiB2ZXJzaW9uPSIxLjEiIGlkPSJMYXllcl8xIiB4PSIwcHgiIHk9IjBweCIgdmlld0JveD0iMC4wMDM0MjU0NTY1ODM0OTk5MDg0IDAgMzkuNjk2NTcxMzUwMDk3NjU2IDM3LjEwMDAwMjI4ODgxODM2IiBzdHlsZT0iZW5hYmxlLWJhY2tncm91bmQ6bmV3IDAgMCAzOS41IDM3LjE7IiB4bWw6c3BhY2U9InByZXNlcnZlIiB3aWR0aD0iMzkuNjk2NTcxMzUwMDk3NjU2IiBoZWlnaHQ9IjM3LjEwMDAwMjI4ODgxODM2Ij4mI3hhOzxzdHlsZSB0eXBlPSJ0ZXh0L2NzcyI+JiN4YTsJLnN0MHtmaWxsOiMxMEE1QUM7fSYjeGE7PC9zdHlsZT4mI3hhOzxnIGlkPSJMYXllcl8yXzFfIj4mI3hhOwk8ZyBpZD0iTGF5ZXJfMS0yIj4mI3hhOwkJPHBhdGggY2xhc3M9InN0MCIgZD0iTTI5LjQsMTkuMmMtMi43LTEuNi02LjEtMC44LTcuOCwxLjhjLTEuNiwyLjctMC44LDYuMSwxLjgsNy44YzAuOSwwLjYsMS45LDAuOCwzLDAuOGMwLjQsMCwwLjktMC4xLDEuMy0wLjEmIzEwOyYjOTsmIzk7JiM5O2MzLTAuNyw0LjktMy44LDQuMi02LjhDMzEuNSwyMS4zLDMwLjYsMjAsMjkuNCwxOS4yTDI5LjQsMTkuMnogTTI3LjMsMjcuNmMtMiwwLjUtMy45LTAuNy00LjQtMi43czAuNy0zLjksMi43LTQuNCYjMTA7JiM5OyYjOTsmIzk7YzAuOS0wLjIsMS45LTAuMSwyLjgsMC41YzAuOCwwLjUsMS40LDEuMywxLjcsMi4zQzMwLjUsMjUuMSwyOS4zLDI3LjEsMjcuMywyNy42QzI3LjMsMjcuNiwyNy4zLDI3LjYsMjcuMywyNy42eiIvPiYjeGE7CQk8cGF0aCBjbGFzcz0ic3QwIiBkPSJNMzguOCwyMy43TDM2LjUsMjNjMC0wLjQtMC4xLTAuOS0wLjItMS4zYy0wLjEtMC40LTAuMi0wLjgtMC40LTEuM2wxLjgtMS43YzAuNC0wLjQsMC40LTEsMC0xLjRjMCwwLDAsMCwwLDAmIzEwOyYjOTsmIzk7JiM5O2wtMy45LTQuMmMtMC40LTAuNC0xLTAuNC0xLjQsMGwtMS44LDEuN2MtMC44LTAuNC0xLjYtMC43LTIuNS0wLjlsLTAuNS0yLjRjLTAuMS0wLjMtMC4yLTAuNS0wLjUtMC42Yy0wLjItMC4xLTAuNS0wLjItMC44LTAuMSYjMTA7JiM5OyYjOTsmIzk7bC01LjYsMS4zYy0wLjMsMC4xLTAuNSwwLjItMC42LDAuNGMtMC4xLDAuMi0wLjIsMC41LTAuMSwwLjhsMC42LDIuNGMtMC43LDAuNS0xLjQsMS4xLTEuOSwxLjhsLTIuMy0wLjdjLTAuMy0wLjEtMC41LDAtMC44LDAuMSYjMTA7JiM5OyYjOTsmIzk7Yy0wLjIsMC4xLTAuNCwwLjMtMC41LDAuNmwtMS42LDUuNWMtMC4yLDAuNSwwLjEsMS4xLDAuNywxLjJjMCwwLDAsMCwwLDBsMi4zLDAuN2MwLDAuNCwwLjEsMC45LDAuMiwxLjNjMC4xLDAuNCwwLjMsMC45LDAuNSwxLjMmIzEwOyYjOTsmIzk7JiM5O2wtMS44LDEuN2MtMC4yLDAuMi0wLjMsMC40LTAuMywwLjdjMCwwLjMsMC4xLDAuNSwwLjMsMC43bDMuOSw0LjJjMC40LDAuNCwxLDAuNCwxLjQsMGMwLDAsMCwwLDAsMGwxLjgtMS43JiMxMDsmIzk7JiM5OyYjOTtjMC44LDAuNCwxLjYsMC42LDIuNSwwLjhsMC42LDIuNGMwLjEsMC41LDAuNSwwLjgsMSwwLjhjMC4xLDAsMC4yLDAsMC4yLDBsNS42LTEuM2MwLjUtMC4xLDAuOS0wLjcsMC43LTEuMmMwLDAsMCwwLDAsMGwtMC42LTIuMyYjMTA7JiM5OyYjOTsmIzk7YzAuNy0wLjUsMS40LTEuMSwxLjktMS44bDIuMywwLjdjMC4zLDAuMSwwLjUsMC4xLDAuOC0wLjFjMC4yLTAuMSwwLjQtMC4zLDAuNS0wLjZsMS43LTUuNUMzOS43LDI0LjQsMzkuNCwyMy44LDM4LjgsMjMuNyYjMTA7JiM5OyYjOTsmIzk7QzM4LjgsMjMuNywzOC44LDIzLjcsMzguOCwyMy43eiBNMzYuMiwyOC45bC0yLTAuNmMtMC40LTAuMS0wLjksMC0xLjEsMC40Yy0wLjYsMC45LTEuNCwxLjctMi40LDIuMmMtMC40LDAuMi0wLjYsMC43LTAuNSwxLjEmIzEwOyYjOTsmIzk7JiM5O2wwLjUsMi4xbC0zLjYsMC45bC0wLjUtMi4xYy0wLjEtMC40LTAuNS0wLjctMC45LTAuOGMtMS4xLTAuMS0yLjItMC40LTMuMS0wLjljLTAuMS0wLjEtMC4zLTAuMS0wLjUtMC4xYy0wLjMsMC0wLjUsMC4xLTAuNywwLjMmIzEwOyYjOTsmIzk7JiM5O2wtMS41LDEuNUwxNy4zLDMwbDEuNS0xLjVjMC4zLTAuMywwLjQtMC44LDAuMi0xLjFjLTAuNS0xLTAuNy0yLjEtMC44LTMuMmMwLTAuNC0wLjMtMC44LTAuNy0wLjlsLTItMC42bDEuMS0zLjZsMiwwLjYmIzEwOyYjOTsmIzk7JiM5O2MwLjQsMC4xLDAuOSwwLDEuMS0wLjRjMC42LTAuOSwxLjQtMS43LDIuNC0yLjJjMC40LTAuMiwwLjYtMC43LDAuNS0xLjFsLTAuNS0ybDMuNi0wLjlsMC41LDIuMWMwLjEsMC40LDAuNSwwLjcsMC45LDAuOCYjMTA7JiM5OyYjOTsmIzk7YzEuMSwwLjEsMi4yLDAuNCwzLjEsMC45YzAuNCwwLjIsMC44LDAuMSwxLjItMC4ybDEuNi0xLjVsMi41LDIuN0wzNCwxOS40Yy0wLjMsMC4zLTAuNCwwLjgtMC4yLDEuMWMwLjIsMC41LDAuNCwxLDAuNSwxLjUmIzEwOyYjOTsmIzk7JiM5O2MwLjEsMC41LDAuMiwxLjEsMC4yLDEuNmMwLDAuNCwwLjMsMC44LDAuNywwLjlsMiwwLjZMMzYuMiwyOC45eiIvPiYjeGE7CQk8cGF0aCBjbGFzcz0ic3QwIiBkPSJNOS4xLDUuMkM2LjgsNS4zLDUsNy4zLDUuMSw5LjdjMC4xLDEuMSwwLjYsMi4yLDEuNCwyLjljMC44LDAuNywxLjgsMS4xLDIuOSwxLjFoMC4yYzEuMiwwLDIuMi0wLjYsMy0xLjQmIzEwOyYjOTsmIzk7JiM5O2MxLjYtMS44LDEuNC00LjUtMC4zLTYuMUMxMS40LDUuNSwxMC4zLDUuMSw5LjEsNS4yeiBNMTEuMSwxMWMtMC44LDAuOS0yLjMsMS0zLjIsMC4yYzAsMCwwLDAsMCwwYy0wLjktMC45LTEtMi4zLTAuMS0zLjMmIzEwOyYjOTsmIzk7JiM5O2MwLjQtMC40LDAuOS0wLjcsMS41LTAuN2gwLjFjMS4zLDAsMi4zLDEuMSwyLjIsMi40QzExLjcsMTAuMSwxMS41LDEwLjYsMTEuMSwxMUwxMS4xLDExeiIvPiYjeGE7CQk8cGF0aCBjbGFzcz0ic3QwIiBkPSJNMTQuMSwxNS4zbDEuNCwwLjdjMC4yLDAuMSwwLjUsMC4xLDAuOCwwLjFjMC4yLTAuMSwwLjUtMC4zLDAuNi0wLjVsMS45LTMuNmMwLjItMC41LDAuMS0xLjEtMC40LTEuMyYjMTA7JiM5OyYjOTsmIzk7bC0xLjQtMC43YzAtMC4zLDAtMC41LDAtMC44YzAtMC4zLDAtMC41LTAuMS0wLjhMMTgsNy40YzAuNS0wLjMsMC42LTAuOSwwLjMtMS40YzAsMCwwLDAsMCwwbC0yLjItMy40Yy0wLjMtMC41LTAuOS0wLjYtMS40LTAuMyYjMTA7JiM5OyYjOTsmIzk7bC0xLjMsMC44Yy0wLjQtMC4zLTAuOS0wLjUtMS40LTAuN0wxMiwwLjljMC0wLjMtMC4xLTAuNS0wLjMtMC43QzExLjUsMC4xLDExLjIsMCwxMC45LDBMNi44LDAuMmMtMC41LDAtMSwwLjUtMC45LDFMNiwyLjgmIzEwOyYjOTsmIzk7JiM5O0M1LjUsMy4xLDUuMSwzLjMsNC43LDMuN0wzLjMsM0MzLjEsMi45LDIuOCwyLjksMi41LDIuOUMyLjMsMywyLjEsMy4yLDIsMy40TDAuMSw3LjFjLTAuMiwwLjUtMC4xLDEuMSwwLjQsMS4zbDEuNCwwLjcmIzEwOyYjOTsmIzk7JiM5O2MwLDAuMywwLDAuNSwwLDAuOGMwLDAuMywwLDAuNSwwLjEsMC44bC0xLjMsMC44Yy0wLjIsMC4xLTAuNCwwLjQtMC40LDAuNmMtMC4xLDAuMywwLDAuNSwwLjEsMC44bDIuMiwzLjQmIzEwOyYjOTsmIzk7JiM5O0MzLDE2LjgsMy42LDE2LjksNCwxNi42YzAsMCwwLDAsMCwwbDEuMy0wLjhjMC40LDAuMywwLjksMC41LDEuNCwwLjdMNi44LDE4YzAsMC41LDAuNSwwLjksMSwwLjloMC4xbDQuMS0wLjImIzEwOyYjOTsmIzk7JiM5O2MwLjMsMCwwLjUtMC4xLDAuNy0wLjNjMC4yLTAuMiwwLjMtMC41LDAuMi0wLjdsLTAuMS0xLjVDMTMuMywxNS45LDEzLjcsMTUuNiwxNC4xLDE1LjN6IE0xMS40LDE0LjZjLTAuNCwwLjItMC43LDAuNi0wLjYsMSYjMTA7JiM5OyYjOTsmIzk7bDAuMSwxLjJsLTIuMSwwLjFsLTAuMS0xLjJjMC0wLjQtMC4zLTAuOC0wLjctMC45Yy0wLjctMC4yLTEuNC0wLjUtMi0xYy0wLjMtMC4zLTAuOC0wLjMtMS4yLTAuMWwtMSwwLjdsLTEuMi0xLjhsMS0wLjcmIzEwOyYjOTsmIzk7JiM5O2MwLjQtMC4yLDAuNS0wLjcsMC40LTEuMUM0LDEwLjUsMy45LDEwLjEsMy45LDkuOGwwLDBjMC0wLjQsMC0wLjcsMC4xLTEuMWMwLTAuNC0wLjItMC44LTAuNS0xTDIuMyw3LjFsMS0xLjlsMS4xLDAuNiYjMTA7JiM5OyYjOTsmIzk7QzQuOCw2LDUuMyw1LjksNS42LDUuNmMwLjUtMC41LDEuMS0wLjksMS44LTEuMkM3LjgsNC4yLDgsMy44LDgsMy40TDcuOSwyLjJMMTAsMmwwLjEsMS4yYzAsMC40LDAuMywwLjgsMC43LDAuOSYjMTA7JiM5OyYjOTsmIzk7YzAuNywwLjIsMS40LDAuNSwyLDFjMC4zLDAuMywwLjgsMC4zLDEuMiwwLjFsMS0wLjdsMS4xLDEuOGwtMSwwLjdjLTAuNCwwLjItMC41LDAuNy0wLjQsMS4xYzAuMSwwLjQsMC4xLDAuNywwLjIsMS4xJiMxMDsmIzk7JiM5OyYjOTtjMCwwLjQsMCwwLjcsMCwxLjFjMCwwLjQsMC4yLDAuOCwwLjUsMWwxLjEsMC42bC0wLjksMS45bC0xLjEtMC42Yy0wLjQtMC4yLTAuOS0wLjEtMS4yLDAuMkMxMi44LDEzLjksMTIuMSwxNC4zLDExLjQsMTQuNnoiLz4mI3hhOwk8L2c+JiN4YTs8L2c+JiN4YTs8L3N2Zz4=;strokeWidth=0;" vertex="1" parent="1">
          <mxGeometry x="700" y="510" width="40" height="37" as="geometry" />
        </mxCell>
        <mxCell id="IVxMjmX394tLIWffqWMJ-33" value="" style="shape=image;verticalLabelPosition=bottom;verticalAlign=top;imageAspect=0;aspect=fixed;image=data:image/svg+xml,PHN2ZyB4bWxucz0iaHR0cDovL3d3dy53My5vcmcvMjAwMC9zdmciIHhtbG5zOnhsaW5rPSJodHRwOi8vd3d3LnczLm9yZy8xOTk5L3hsaW5rIiB2ZXJzaW9uPSIxLjEiIGlkPSJMYXllcl8xIiB4PSIwcHgiIHk9IjBweCIgdmlld0JveD0iMC4wMDM0MjU0NTY1ODM0OTk5MDg0IDAgMzkuNjk2NTcxMzUwMDk3NjU2IDM3LjEwMDAwMjI4ODgxODM2IiBzdHlsZT0iZW5hYmxlLWJhY2tncm91bmQ6bmV3IDAgMCAzOS41IDM3LjE7IiB4bWw6c3BhY2U9InByZXNlcnZlIiB3aWR0aD0iMzkuNjk2NTcxMzUwMDk3NjU2IiBoZWlnaHQ9IjM3LjEwMDAwMjI4ODgxODM2Ij4mI3hhOzxzdHlsZSB0eXBlPSJ0ZXh0L2NzcyI+JiN4YTsJLnN0MHtmaWxsOiMxMEE1QUM7fSYjeGE7PC9zdHlsZT4mI3hhOzxnIGlkPSJMYXllcl8yXzFfIj4mI3hhOwk8ZyBpZD0iTGF5ZXJfMS0yIj4mI3hhOwkJPHBhdGggY2xhc3M9InN0MCIgZD0iTTI5LjQsMTkuMmMtMi43LTEuNi02LjEtMC44LTcuOCwxLjhjLTEuNiwyLjctMC44LDYuMSwxLjgsNy44YzAuOSwwLjYsMS45LDAuOCwzLDAuOGMwLjQsMCwwLjktMC4xLDEuMy0wLjEmIzEwOyYjOTsmIzk7JiM5O2MzLTAuNyw0LjktMy44LDQuMi02LjhDMzEuNSwyMS4zLDMwLjYsMjAsMjkuNCwxOS4yTDI5LjQsMTkuMnogTTI3LjMsMjcuNmMtMiwwLjUtMy45LTAuNy00LjQtMi43czAuNy0zLjksMi43LTQuNCYjMTA7JiM5OyYjOTsmIzk7YzAuOS0wLjIsMS45LTAuMSwyLjgsMC41YzAuOCwwLjUsMS40LDEuMywxLjcsMi4zQzMwLjUsMjUuMSwyOS4zLDI3LjEsMjcuMywyNy42QzI3LjMsMjcuNiwyNy4zLDI3LjYsMjcuMywyNy42eiIvPiYjeGE7CQk8cGF0aCBjbGFzcz0ic3QwIiBkPSJNMzguOCwyMy43TDM2LjUsMjNjMC0wLjQtMC4xLTAuOS0wLjItMS4zYy0wLjEtMC40LTAuMi0wLjgtMC40LTEuM2wxLjgtMS43YzAuNC0wLjQsMC40LTEsMC0xLjRjMCwwLDAsMCwwLDAmIzEwOyYjOTsmIzk7JiM5O2wtMy45LTQuMmMtMC40LTAuNC0xLTAuNC0xLjQsMGwtMS44LDEuN2MtMC44LTAuNC0xLjYtMC43LTIuNS0wLjlsLTAuNS0yLjRjLTAuMS0wLjMtMC4yLTAuNS0wLjUtMC42Yy0wLjItMC4xLTAuNS0wLjItMC44LTAuMSYjMTA7JiM5OyYjOTsmIzk7bC01LjYsMS4zYy0wLjMsMC4xLTAuNSwwLjItMC42LDAuNGMtMC4xLDAuMi0wLjIsMC41LTAuMSwwLjhsMC42LDIuNGMtMC43LDAuNS0xLjQsMS4xLTEuOSwxLjhsLTIuMy0wLjdjLTAuMy0wLjEtMC41LDAtMC44LDAuMSYjMTA7JiM5OyYjOTsmIzk7Yy0wLjIsMC4xLTAuNCwwLjMtMC41LDAuNmwtMS42LDUuNWMtMC4yLDAuNSwwLjEsMS4xLDAuNywxLjJjMCwwLDAsMCwwLDBsMi4zLDAuN2MwLDAuNCwwLjEsMC45LDAuMiwxLjNjMC4xLDAuNCwwLjMsMC45LDAuNSwxLjMmIzEwOyYjOTsmIzk7JiM5O2wtMS44LDEuN2MtMC4yLDAuMi0wLjMsMC40LTAuMywwLjdjMCwwLjMsMC4xLDAuNSwwLjMsMC43bDMuOSw0LjJjMC40LDAuNCwxLDAuNCwxLjQsMGMwLDAsMCwwLDAsMGwxLjgtMS43JiMxMDsmIzk7JiM5OyYjOTtjMC44LDAuNCwxLjYsMC42LDIuNSwwLjhsMC42LDIuNGMwLjEsMC41LDAuNSwwLjgsMSwwLjhjMC4xLDAsMC4yLDAsMC4yLDBsNS42LTEuM2MwLjUtMC4xLDAuOS0wLjcsMC43LTEuMmMwLDAsMCwwLDAsMGwtMC42LTIuMyYjMTA7JiM5OyYjOTsmIzk7YzAuNy0wLjUsMS40LTEuMSwxLjktMS44bDIuMywwLjdjMC4zLDAuMSwwLjUsMC4xLDAuOC0wLjFjMC4yLTAuMSwwLjQtMC4zLDAuNS0wLjZsMS43LTUuNUMzOS43LDI0LjQsMzkuNCwyMy44LDM4LjgsMjMuNyYjMTA7JiM5OyYjOTsmIzk7QzM4LjgsMjMuNywzOC44LDIzLjcsMzguOCwyMy43eiBNMzYuMiwyOC45bC0yLTAuNmMtMC40LTAuMS0wLjksMC0xLjEsMC40Yy0wLjYsMC45LTEuNCwxLjctMi40LDIuMmMtMC40LDAuMi0wLjYsMC43LTAuNSwxLjEmIzEwOyYjOTsmIzk7JiM5O2wwLjUsMi4xbC0zLjYsMC45bC0wLjUtMi4xYy0wLjEtMC40LTAuNS0wLjctMC45LTAuOGMtMS4xLTAuMS0yLjItMC40LTMuMS0wLjljLTAuMS0wLjEtMC4zLTAuMS0wLjUtMC4xYy0wLjMsMC0wLjUsMC4xLTAuNywwLjMmIzEwOyYjOTsmIzk7JiM5O2wtMS41LDEuNUwxNy4zLDMwbDEuNS0xLjVjMC4zLTAuMywwLjQtMC44LDAuMi0xLjFjLTAuNS0xLTAuNy0yLjEtMC44LTMuMmMwLTAuNC0wLjMtMC44LTAuNy0wLjlsLTItMC42bDEuMS0zLjZsMiwwLjYmIzEwOyYjOTsmIzk7JiM5O2MwLjQsMC4xLDAuOSwwLDEuMS0wLjRjMC42LTAuOSwxLjQtMS43LDIuNC0yLjJjMC40LTAuMiwwLjYtMC43LDAuNS0xLjFsLTAuNS0ybDMuNi0wLjlsMC41LDIuMWMwLjEsMC40LDAuNSwwLjcsMC45LDAuOCYjMTA7JiM5OyYjOTsmIzk7YzEuMSwwLjEsMi4yLDAuNCwzLjEsMC45YzAuNCwwLjIsMC44LDAuMSwxLjItMC4ybDEuNi0xLjVsMi41LDIuN0wzNCwxOS40Yy0wLjMsMC4zLTAuNCwwLjgtMC4yLDEuMWMwLjIsMC41LDAuNCwxLDAuNSwxLjUmIzEwOyYjOTsmIzk7JiM5O2MwLjEsMC41LDAuMiwxLjEsMC4yLDEuNmMwLDAuNCwwLjMsMC44LDAuNywwLjlsMiwwLjZMMzYuMiwyOC45eiIvPiYjeGE7CQk8cGF0aCBjbGFzcz0ic3QwIiBkPSJNOS4xLDUuMkM2LjgsNS4zLDUsNy4zLDUuMSw5LjdjMC4xLDEuMSwwLjYsMi4yLDEuNCwyLjljMC44LDAuNywxLjgsMS4xLDIuOSwxLjFoMC4yYzEuMiwwLDIuMi0wLjYsMy0xLjQmIzEwOyYjOTsmIzk7JiM5O2MxLjYtMS44LDEuNC00LjUtMC4zLTYuMUMxMS40LDUuNSwxMC4zLDUuMSw5LjEsNS4yeiBNMTEuMSwxMWMtMC44LDAuOS0yLjMsMS0zLjIsMC4yYzAsMCwwLDAsMCwwYy0wLjktMC45LTEtMi4zLTAuMS0zLjMmIzEwOyYjOTsmIzk7JiM5O2MwLjQtMC40LDAuOS0wLjcsMS41LTAuN2gwLjFjMS4zLDAsMi4zLDEuMSwyLjIsMi40QzExLjcsMTAuMSwxMS41LDEwLjYsMTEuMSwxMUwxMS4xLDExeiIvPiYjeGE7CQk8cGF0aCBjbGFzcz0ic3QwIiBkPSJNMTQuMSwxNS4zbDEuNCwwLjdjMC4yLDAuMSwwLjUsMC4xLDAuOCwwLjFjMC4yLTAuMSwwLjUtMC4zLDAuNi0wLjVsMS45LTMuNmMwLjItMC41LDAuMS0xLjEtMC40LTEuMyYjMTA7JiM5OyYjOTsmIzk7bC0xLjQtMC43YzAtMC4zLDAtMC41LDAtMC44YzAtMC4zLDAtMC41LTAuMS0wLjhMMTgsNy40YzAuNS0wLjMsMC42LTAuOSwwLjMtMS40YzAsMCwwLDAsMCwwbC0yLjItMy40Yy0wLjMtMC41LTAuOS0wLjYtMS40LTAuMyYjMTA7JiM5OyYjOTsmIzk7bC0xLjMsMC44Yy0wLjQtMC4zLTAuOS0wLjUtMS40LTAuN0wxMiwwLjljMC0wLjMtMC4xLTAuNS0wLjMtMC43QzExLjUsMC4xLDExLjIsMCwxMC45LDBMNi44LDAuMmMtMC41LDAtMSwwLjUtMC45LDFMNiwyLjgmIzEwOyYjOTsmIzk7JiM5O0M1LjUsMy4xLDUuMSwzLjMsNC43LDMuN0wzLjMsM0MzLjEsMi45LDIuOCwyLjksMi41LDIuOUMyLjMsMywyLjEsMy4yLDIsMy40TDAuMSw3LjFjLTAuMiwwLjUtMC4xLDEuMSwwLjQsMS4zbDEuNCwwLjcmIzEwOyYjOTsmIzk7JiM5O2MwLDAuMywwLDAuNSwwLDAuOGMwLDAuMywwLDAuNSwwLjEsMC44bC0xLjMsMC44Yy0wLjIsMC4xLTAuNCwwLjQtMC40LDAuNmMtMC4xLDAuMywwLDAuNSwwLjEsMC44bDIuMiwzLjQmIzEwOyYjOTsmIzk7JiM5O0MzLDE2LjgsMy42LDE2LjksNCwxNi42YzAsMCwwLDAsMCwwbDEuMy0wLjhjMC40LDAuMywwLjksMC41LDEuNCwwLjdMNi44LDE4YzAsMC41LDAuNSwwLjksMSwwLjloMC4xbDQuMS0wLjImIzEwOyYjOTsmIzk7JiM5O2MwLjMsMCwwLjUtMC4xLDAuNy0wLjNjMC4yLTAuMiwwLjMtMC41LDAuMi0wLjdsLTAuMS0xLjVDMTMuMywxNS45LDEzLjcsMTUuNiwxNC4xLDE1LjN6IE0xMS40LDE0LjZjLTAuNCwwLjItMC43LDAuNi0wLjYsMSYjMTA7JiM5OyYjOTsmIzk7bDAuMSwxLjJsLTIuMSwwLjFsLTAuMS0xLjJjMC0wLjQtMC4zLTAuOC0wLjctMC45Yy0wLjctMC4yLTEuNC0wLjUtMi0xYy0wLjMtMC4zLTAuOC0wLjMtMS4yLTAuMWwtMSwwLjdsLTEuMi0xLjhsMS0wLjcmIzEwOyYjOTsmIzk7JiM5O2MwLjQtMC4yLDAuNS0wLjcsMC40LTEuMUM0LDEwLjUsMy45LDEwLjEsMy45LDkuOGwwLDBjMC0wLjQsMC0wLjcsMC4xLTEuMWMwLTAuNC0wLjItMC44LTAuNS0xTDIuMyw3LjFsMS0xLjlsMS4xLDAuNiYjMTA7JiM5OyYjOTsmIzk7QzQuOCw2LDUuMyw1LjksNS42LDUuNmMwLjUtMC41LDEuMS0wLjksMS44LTEuMkM3LjgsNC4yLDgsMy44LDgsMy40TDcuOSwyLjJMMTAsMmwwLjEsMS4yYzAsMC40LDAuMywwLjgsMC43LDAuOSYjMTA7JiM5OyYjOTsmIzk7YzAuNywwLjIsMS40LDAuNSwyLDFjMC4zLDAuMywwLjgsMC4zLDEuMiwwLjFsMS0wLjdsMS4xLDEuOGwtMSwwLjdjLTAuNCwwLjItMC41LDAuNy0wLjQsMS4xYzAuMSwwLjQsMC4xLDAuNywwLjIsMS4xJiMxMDsmIzk7JiM5OyYjOTtjMCwwLjQsMCwwLjcsMCwxLjFjMCwwLjQsMC4yLDAuOCwwLjUsMWwxLjEsMC42bC0wLjksMS45bC0xLjEtMC42Yy0wLjQtMC4yLTAuOS0wLjEtMS4yLDAuMkMxMi44LDEzLjksMTIuMSwxNC4zLDExLjQsMTQuNnoiLz4mI3hhOwk8L2c+JiN4YTs8L2c+JiN4YTs8L3N2Zz4=;strokeWidth=0;" vertex="1" parent="1">
          <mxGeometry x="450" y="660" width="40" height="37" as="geometry" />
        </mxCell>
        <mxCell id="IVxMjmX394tLIWffqWMJ-34" value="" style="shape=image;verticalLabelPosition=bottom;verticalAlign=top;imageAspect=0;aspect=fixed;image=data:image/svg+xml,PHN2ZyB4bWxucz0iaHR0cDovL3d3dy53My5vcmcvMjAwMC9zdmciIHhtbG5zOnhsaW5rPSJodHRwOi8vd3d3LnczLm9yZy8xOTk5L3hsaW5rIiB2ZXJzaW9uPSIxLjEiIGlkPSJMYXllcl8xIiB4PSIwcHgiIHk9IjBweCIgdmlld0JveD0iMC4wMDM0MjU0NTY1ODM0OTk5MDg0IDAgMzkuNjk2NTcxMzUwMDk3NjU2IDM3LjEwMDAwMjI4ODgxODM2IiBzdHlsZT0iZW5hYmxlLWJhY2tncm91bmQ6bmV3IDAgMCAzOS41IDM3LjE7IiB4bWw6c3BhY2U9InByZXNlcnZlIiB3aWR0aD0iMzkuNjk2NTcxMzUwMDk3NjU2IiBoZWlnaHQ9IjM3LjEwMDAwMjI4ODgxODM2Ij4mI3hhOzxzdHlsZSB0eXBlPSJ0ZXh0L2NzcyI+JiN4YTsJLnN0MHtmaWxsOiMxMEE1QUM7fSYjeGE7PC9zdHlsZT4mI3hhOzxnIGlkPSJMYXllcl8yXzFfIj4mI3hhOwk8ZyBpZD0iTGF5ZXJfMS0yIj4mI3hhOwkJPHBhdGggY2xhc3M9InN0MCIgZD0iTTI5LjQsMTkuMmMtMi43LTEuNi02LjEtMC44LTcuOCwxLjhjLTEuNiwyLjctMC44LDYuMSwxLjgsNy44YzAuOSwwLjYsMS45LDAuOCwzLDAuOGMwLjQsMCwwLjktMC4xLDEuMy0wLjEmIzEwOyYjOTsmIzk7JiM5O2MzLTAuNyw0LjktMy44LDQuMi02LjhDMzEuNSwyMS4zLDMwLjYsMjAsMjkuNCwxOS4yTDI5LjQsMTkuMnogTTI3LjMsMjcuNmMtMiwwLjUtMy45LTAuNy00LjQtMi43czAuNy0zLjksMi43LTQuNCYjMTA7JiM5OyYjOTsmIzk7YzAuOS0wLjIsMS45LTAuMSwyLjgsMC41YzAuOCwwLjUsMS40LDEuMywxLjcsMi4zQzMwLjUsMjUuMSwyOS4zLDI3LjEsMjcuMywyNy42QzI3LjMsMjcuNiwyNy4zLDI3LjYsMjcuMywyNy42eiIvPiYjeGE7CQk8cGF0aCBjbGFzcz0ic3QwIiBkPSJNMzguOCwyMy43TDM2LjUsMjNjMC0wLjQtMC4xLTAuOS0wLjItMS4zYy0wLjEtMC40LTAuMi0wLjgtMC40LTEuM2wxLjgtMS43YzAuNC0wLjQsMC40LTEsMC0xLjRjMCwwLDAsMCwwLDAmIzEwOyYjOTsmIzk7JiM5O2wtMy45LTQuMmMtMC40LTAuNC0xLTAuNC0xLjQsMGwtMS44LDEuN2MtMC44LTAuNC0xLjYtMC43LTIuNS0wLjlsLTAuNS0yLjRjLTAuMS0wLjMtMC4yLTAuNS0wLjUtMC42Yy0wLjItMC4xLTAuNS0wLjItMC44LTAuMSYjMTA7JiM5OyYjOTsmIzk7bC01LjYsMS4zYy0wLjMsMC4xLTAuNSwwLjItMC42LDAuNGMtMC4xLDAuMi0wLjIsMC41LTAuMSwwLjhsMC42LDIuNGMtMC43LDAuNS0xLjQsMS4xLTEuOSwxLjhsLTIuMy0wLjdjLTAuMy0wLjEtMC41LDAtMC44LDAuMSYjMTA7JiM5OyYjOTsmIzk7Yy0wLjIsMC4xLTAuNCwwLjMtMC41LDAuNmwtMS42LDUuNWMtMC4yLDAuNSwwLjEsMS4xLDAuNywxLjJjMCwwLDAsMCwwLDBsMi4zLDAuN2MwLDAuNCwwLjEsMC45LDAuMiwxLjNjMC4xLDAuNCwwLjMsMC45LDAuNSwxLjMmIzEwOyYjOTsmIzk7JiM5O2wtMS44LDEuN2MtMC4yLDAuMi0wLjMsMC40LTAuMywwLjdjMCwwLjMsMC4xLDAuNSwwLjMsMC43bDMuOSw0LjJjMC40LDAuNCwxLDAuNCwxLjQsMGMwLDAsMCwwLDAsMGwxLjgtMS43JiMxMDsmIzk7JiM5OyYjOTtjMC44LDAuNCwxLjYsMC42LDIuNSwwLjhsMC42LDIuNGMwLjEsMC41LDAuNSwwLjgsMSwwLjhjMC4xLDAsMC4yLDAsMC4yLDBsNS42LTEuM2MwLjUtMC4xLDAuOS0wLjcsMC43LTEuMmMwLDAsMCwwLDAsMGwtMC42LTIuMyYjMTA7JiM5OyYjOTsmIzk7YzAuNy0wLjUsMS40LTEuMSwxLjktMS44bDIuMywwLjdjMC4zLDAuMSwwLjUsMC4xLDAuOC0wLjFjMC4yLTAuMSwwLjQtMC4zLDAuNS0wLjZsMS43LTUuNUMzOS43LDI0LjQsMzkuNCwyMy44LDM4LjgsMjMuNyYjMTA7JiM5OyYjOTsmIzk7QzM4LjgsMjMuNywzOC44LDIzLjcsMzguOCwyMy43eiBNMzYuMiwyOC45bC0yLTAuNmMtMC40LTAuMS0wLjksMC0xLjEsMC40Yy0wLjYsMC45LTEuNCwxLjctMi40LDIuMmMtMC40LDAuMi0wLjYsMC43LTAuNSwxLjEmIzEwOyYjOTsmIzk7JiM5O2wwLjUsMi4xbC0zLjYsMC45bC0wLjUtMi4xYy0wLjEtMC40LTAuNS0wLjctMC45LTAuOGMtMS4xLTAuMS0yLjItMC40LTMuMS0wLjljLTAuMS0wLjEtMC4zLTAuMS0wLjUtMC4xYy0wLjMsMC0wLjUsMC4xLTAuNywwLjMmIzEwOyYjOTsmIzk7JiM5O2wtMS41LDEuNUwxNy4zLDMwbDEuNS0xLjVjMC4zLTAuMywwLjQtMC44LDAuMi0xLjFjLTAuNS0xLTAuNy0yLjEtMC44LTMuMmMwLTAuNC0wLjMtMC44LTAuNy0wLjlsLTItMC42bDEuMS0zLjZsMiwwLjYmIzEwOyYjOTsmIzk7JiM5O2MwLjQsMC4xLDAuOSwwLDEuMS0wLjRjMC42LTAuOSwxLjQtMS43LDIuNC0yLjJjMC40LTAuMiwwLjYtMC43LDAuNS0xLjFsLTAuNS0ybDMuNi0wLjlsMC41LDIuMWMwLjEsMC40LDAuNSwwLjcsMC45LDAuOCYjMTA7JiM5OyYjOTsmIzk7YzEuMSwwLjEsMi4yLDAuNCwzLjEsMC45YzAuNCwwLjIsMC44LDAuMSwxLjItMC4ybDEuNi0xLjVsMi41LDIuN0wzNCwxOS40Yy0wLjMsMC4zLTAuNCwwLjgtMC4yLDEuMWMwLjIsMC41LDAuNCwxLDAuNSwxLjUmIzEwOyYjOTsmIzk7JiM5O2MwLjEsMC41LDAuMiwxLjEsMC4yLDEuNmMwLDAuNCwwLjMsMC44LDAuNywwLjlsMiwwLjZMMzYuMiwyOC45eiIvPiYjeGE7CQk8cGF0aCBjbGFzcz0ic3QwIiBkPSJNOS4xLDUuMkM2LjgsNS4zLDUsNy4zLDUuMSw5LjdjMC4xLDEuMSwwLjYsMi4yLDEuNCwyLjljMC44LDAuNywxLjgsMS4xLDIuOSwxLjFoMC4yYzEuMiwwLDIuMi0wLjYsMy0xLjQmIzEwOyYjOTsmIzk7JiM5O2MxLjYtMS44LDEuNC00LjUtMC4zLTYuMUMxMS40LDUuNSwxMC4zLDUuMSw5LjEsNS4yeiBNMTEuMSwxMWMtMC44LDAuOS0yLjMsMS0zLjIsMC4yYzAsMCwwLDAsMCwwYy0wLjktMC45LTEtMi4zLTAuMS0zLjMmIzEwOyYjOTsmIzk7JiM5O2MwLjQtMC40LDAuOS0wLjcsMS41LTAuN2gwLjFjMS4zLDAsMi4zLDEuMSwyLjIsMi40QzExLjcsMTAuMSwxMS41LDEwLjYsMTEuMSwxMUwxMS4xLDExeiIvPiYjeGE7CQk8cGF0aCBjbGFzcz0ic3QwIiBkPSJNMTQuMSwxNS4zbDEuNCwwLjdjMC4yLDAuMSwwLjUsMC4xLDAuOCwwLjFjMC4yLTAuMSwwLjUtMC4zLDAuNi0wLjVsMS45LTMuNmMwLjItMC41LDAuMS0xLjEtMC40LTEuMyYjMTA7JiM5OyYjOTsmIzk7bC0xLjQtMC43YzAtMC4zLDAtMC41LDAtMC44YzAtMC4zLDAtMC41LTAuMS0wLjhMMTgsNy40YzAuNS0wLjMsMC42LTAuOSwwLjMtMS40YzAsMCwwLDAsMCwwbC0yLjItMy40Yy0wLjMtMC41LTAuOS0wLjYtMS40LTAuMyYjMTA7JiM5OyYjOTsmIzk7bC0xLjMsMC44Yy0wLjQtMC4zLTAuOS0wLjUtMS40LTAuN0wxMiwwLjljMC0wLjMtMC4xLTAuNS0wLjMtMC43QzExLjUsMC4xLDExLjIsMCwxMC45LDBMNi44LDAuMmMtMC41LDAtMSwwLjUtMC45LDFMNiwyLjgmIzEwOyYjOTsmIzk7JiM5O0M1LjUsMy4xLDUuMSwzLjMsNC43LDMuN0wzLjMsM0MzLjEsMi45LDIuOCwyLjksMi41LDIuOUMyLjMsMywyLjEsMy4yLDIsMy40TDAuMSw3LjFjLTAuMiwwLjUtMC4xLDEuMSwwLjQsMS4zbDEuNCwwLjcmIzEwOyYjOTsmIzk7JiM5O2MwLDAuMywwLDAuNSwwLDAuOGMwLDAuMywwLDAuNSwwLjEsMC44bC0xLjMsMC44Yy0wLjIsMC4xLTAuNCwwLjQtMC40LDAuNmMtMC4xLDAuMywwLDAuNSwwLjEsMC44bDIuMiwzLjQmIzEwOyYjOTsmIzk7JiM5O0MzLDE2LjgsMy42LDE2LjksNCwxNi42YzAsMCwwLDAsMCwwbDEuMy0wLjhjMC40LDAuMywwLjksMC41LDEuNCwwLjdMNi44LDE4YzAsMC41LDAuNSwwLjksMSwwLjloMC4xbDQuMS0wLjImIzEwOyYjOTsmIzk7JiM5O2MwLjMsMCwwLjUtMC4xLDAuNy0wLjNjMC4yLTAuMiwwLjMtMC41LDAuMi0wLjdsLTAuMS0xLjVDMTMuMywxNS45LDEzLjcsMTUuNiwxNC4xLDE1LjN6IE0xMS40LDE0LjZjLTAuNCwwLjItMC43LDAuNi0wLjYsMSYjMTA7JiM5OyYjOTsmIzk7bDAuMSwxLjJsLTIuMSwwLjFsLTAuMS0xLjJjMC0wLjQtMC4zLTAuOC0wLjctMC45Yy0wLjctMC4yLTEuNC0wLjUtMi0xYy0wLjMtMC4zLTAuOC0wLjMtMS4yLTAuMWwtMSwwLjdsLTEuMi0xLjhsMS0wLjcmIzEwOyYjOTsmIzk7JiM5O2MwLjQtMC4yLDAuNS0wLjcsMC40LTEuMUM0LDEwLjUsMy45LDEwLjEsMy45LDkuOGwwLDBjMC0wLjQsMC0wLjcsMC4xLTEuMWMwLTAuNC0wLjItMC44LTAuNS0xTDIuMyw3LjFsMS0xLjlsMS4xLDAuNiYjMTA7JiM5OyYjOTsmIzk7QzQuOCw2LDUuMyw1LjksNS42LDUuNmMwLjUtMC41LDEuMS0wLjksMS44LTEuMkM3LjgsNC4yLDgsMy44LDgsMy40TDcuOSwyLjJMMTAsMmwwLjEsMS4yYzAsMC40LDAuMywwLjgsMC43LDAuOSYjMTA7JiM5OyYjOTsmIzk7YzAuNywwLjIsMS40LDAuNSwyLDFjMC4zLDAuMywwLjgsMC4zLDEuMiwwLjFsMS0wLjdsMS4xLDEuOGwtMSwwLjdjLTAuNCwwLjItMC41LDAuNy0wLjQsMS4xYzAuMSwwLjQsMC4xLDAuNywwLjIsMS4xJiMxMDsmIzk7JiM5OyYjOTtjMCwwLjQsMCwwLjcsMCwxLjFjMCwwLjQsMC4yLDAuOCwwLjUsMWwxLjEsMC42bC0wLjksMS45bC0xLjEtMC42Yy0wLjQtMC4yLTAuOS0wLjEtMS4yLDAuMkMxMi44LDEzLjksMTIuMSwxNC4zLDExLjQsMTQuNnoiLz4mI3hhOwk8L2c+JiN4YTs8L2c+JiN4YTs8L3N2Zz4=;strokeWidth=0;" vertex="1" parent="1">
          <mxGeometry x="710" y="660" width="40" height="37" as="geometry" />
        </mxCell>
        <mxCell id="IVxMjmX394tLIWffqWMJ-35" value="" style="shape=image;verticalLabelPosition=bottom;verticalAlign=top;imageAspect=0;aspect=fixed;image=data:image/svg+xml,PHN2ZyB4bWxucz0iaHR0cDovL3d3dy53My5vcmcvMjAwMC9zdmciIHhtbG5zOnhsaW5rPSJodHRwOi8vd3d3LnczLm9yZy8xOTk5L3hsaW5rIiB2ZXJzaW9uPSIxLjEiIGlkPSJMYXllcl8xIiB4PSIwcHgiIHk9IjBweCIgdmlld0JveD0iMC4wMDM0MjU0NTY1ODM0OTk5MDg0IDAgMzkuNjk2NTcxMzUwMDk3NjU2IDM3LjEwMDAwMjI4ODgxODM2IiBzdHlsZT0iZW5hYmxlLWJhY2tncm91bmQ6bmV3IDAgMCAzOS41IDM3LjE7IiB4bWw6c3BhY2U9InByZXNlcnZlIiB3aWR0aD0iMzkuNjk2NTcxMzUwMDk3NjU2IiBoZWlnaHQ9IjM3LjEwMDAwMjI4ODgxODM2Ij4mI3hhOzxzdHlsZSB0eXBlPSJ0ZXh0L2NzcyI+JiN4YTsJLnN0MHtmaWxsOiMxMEE1QUM7fSYjeGE7PC9zdHlsZT4mI3hhOzxnIGlkPSJMYXllcl8yXzFfIj4mI3hhOwk8ZyBpZD0iTGF5ZXJfMS0yIj4mI3hhOwkJPHBhdGggY2xhc3M9InN0MCIgZD0iTTI5LjQsMTkuMmMtMi43LTEuNi02LjEtMC44LTcuOCwxLjhjLTEuNiwyLjctMC44LDYuMSwxLjgsNy44YzAuOSwwLjYsMS45LDAuOCwzLDAuOGMwLjQsMCwwLjktMC4xLDEuMy0wLjEmIzEwOyYjOTsmIzk7JiM5O2MzLTAuNyw0LjktMy44LDQuMi02LjhDMzEuNSwyMS4zLDMwLjYsMjAsMjkuNCwxOS4yTDI5LjQsMTkuMnogTTI3LjMsMjcuNmMtMiwwLjUtMy45LTAuNy00LjQtMi43czAuNy0zLjksMi43LTQuNCYjMTA7JiM5OyYjOTsmIzk7YzAuOS0wLjIsMS45LTAuMSwyLjgsMC41YzAuOCwwLjUsMS40LDEuMywxLjcsMi4zQzMwLjUsMjUuMSwyOS4zLDI3LjEsMjcuMywyNy42QzI3LjMsMjcuNiwyNy4zLDI3LjYsMjcuMywyNy42eiIvPiYjeGE7CQk8cGF0aCBjbGFzcz0ic3QwIiBkPSJNMzguOCwyMy43TDM2LjUsMjNjMC0wLjQtMC4xLTAuOS0wLjItMS4zYy0wLjEtMC40LTAuMi0wLjgtMC40LTEuM2wxLjgtMS43YzAuNC0wLjQsMC40LTEsMC0xLjRjMCwwLDAsMCwwLDAmIzEwOyYjOTsmIzk7JiM5O2wtMy45LTQuMmMtMC40LTAuNC0xLTAuNC0xLjQsMGwtMS44LDEuN2MtMC44LTAuNC0xLjYtMC43LTIuNS0wLjlsLTAuNS0yLjRjLTAuMS0wLjMtMC4yLTAuNS0wLjUtMC42Yy0wLjItMC4xLTAuNS0wLjItMC44LTAuMSYjMTA7JiM5OyYjOTsmIzk7bC01LjYsMS4zYy0wLjMsMC4xLTAuNSwwLjItMC42LDAuNGMtMC4xLDAuMi0wLjIsMC41LTAuMSwwLjhsMC42LDIuNGMtMC43LDAuNS0xLjQsMS4xLTEuOSwxLjhsLTIuMy0wLjdjLTAuMy0wLjEtMC41LDAtMC44LDAuMSYjMTA7JiM5OyYjOTsmIzk7Yy0wLjIsMC4xLTAuNCwwLjMtMC41LDAuNmwtMS42LDUuNWMtMC4yLDAuNSwwLjEsMS4xLDAuNywxLjJjMCwwLDAsMCwwLDBsMi4zLDAuN2MwLDAuNCwwLjEsMC45LDAuMiwxLjNjMC4xLDAuNCwwLjMsMC45LDAuNSwxLjMmIzEwOyYjOTsmIzk7JiM5O2wtMS44LDEuN2MtMC4yLDAuMi0wLjMsMC40LTAuMywwLjdjMCwwLjMsMC4xLDAuNSwwLjMsMC43bDMuOSw0LjJjMC40LDAuNCwxLDAuNCwxLjQsMGMwLDAsMCwwLDAsMGwxLjgtMS43JiMxMDsmIzk7JiM5OyYjOTtjMC44LDAuNCwxLjYsMC42LDIuNSwwLjhsMC42LDIuNGMwLjEsMC41LDAuNSwwLjgsMSwwLjhjMC4xLDAsMC4yLDAsMC4yLDBsNS42LTEuM2MwLjUtMC4xLDAuOS0wLjcsMC43LTEuMmMwLDAsMCwwLDAsMGwtMC42LTIuMyYjMTA7JiM5OyYjOTsmIzk7YzAuNy0wLjUsMS40LTEuMSwxLjktMS44bDIuMywwLjdjMC4zLDAuMSwwLjUsMC4xLDAuOC0wLjFjMC4yLTAuMSwwLjQtMC4zLDAuNS0wLjZsMS43LTUuNUMzOS43LDI0LjQsMzkuNCwyMy44LDM4LjgsMjMuNyYjMTA7JiM5OyYjOTsmIzk7QzM4LjgsMjMuNywzOC44LDIzLjcsMzguOCwyMy43eiBNMzYuMiwyOC45bC0yLTAuNmMtMC40LTAuMS0wLjksMC0xLjEsMC40Yy0wLjYsMC45LTEuNCwxLjctMi40LDIuMmMtMC40LDAuMi0wLjYsMC43LTAuNSwxLjEmIzEwOyYjOTsmIzk7JiM5O2wwLjUsMi4xbC0zLjYsMC45bC0wLjUtMi4xYy0wLjEtMC40LTAuNS0wLjctMC45LTAuOGMtMS4xLTAuMS0yLjItMC40LTMuMS0wLjljLTAuMS0wLjEtMC4zLTAuMS0wLjUtMC4xYy0wLjMsMC0wLjUsMC4xLTAuNywwLjMmIzEwOyYjOTsmIzk7JiM5O2wtMS41LDEuNUwxNy4zLDMwbDEuNS0xLjVjMC4zLTAuMywwLjQtMC44LDAuMi0xLjFjLTAuNS0xLTAuNy0yLjEtMC44LTMuMmMwLTAuNC0wLjMtMC44LTAuNy0wLjlsLTItMC42bDEuMS0zLjZsMiwwLjYmIzEwOyYjOTsmIzk7JiM5O2MwLjQsMC4xLDAuOSwwLDEuMS0wLjRjMC42LTAuOSwxLjQtMS43LDIuNC0yLjJjMC40LTAuMiwwLjYtMC43LDAuNS0xLjFsLTAuNS0ybDMuNi0wLjlsMC41LDIuMWMwLjEsMC40LDAuNSwwLjcsMC45LDAuOCYjMTA7JiM5OyYjOTsmIzk7YzEuMSwwLjEsMi4yLDAuNCwzLjEsMC45YzAuNCwwLjIsMC44LDAuMSwxLjItMC4ybDEuNi0xLjVsMi41LDIuN0wzNCwxOS40Yy0wLjMsMC4zLTAuNCwwLjgtMC4yLDEuMWMwLjIsMC41LDAuNCwxLDAuNSwxLjUmIzEwOyYjOTsmIzk7JiM5O2MwLjEsMC41LDAuMiwxLjEsMC4yLDEuNmMwLDAuNCwwLjMsMC44LDAuNywwLjlsMiwwLjZMMzYuMiwyOC45eiIvPiYjeGE7CQk8cGF0aCBjbGFzcz0ic3QwIiBkPSJNOS4xLDUuMkM2LjgsNS4zLDUsNy4zLDUuMSw5LjdjMC4xLDEuMSwwLjYsMi4yLDEuNCwyLjljMC44LDAuNywxLjgsMS4xLDIuOSwxLjFoMC4yYzEuMiwwLDIuMi0wLjYsMy0xLjQmIzEwOyYjOTsmIzk7JiM5O2MxLjYtMS44LDEuNC00LjUtMC4zLTYuMUMxMS40LDUuNSwxMC4zLDUuMSw5LjEsNS4yeiBNMTEuMSwxMWMtMC44LDAuOS0yLjMsMS0zLjIsMC4yYzAsMCwwLDAsMCwwYy0wLjktMC45LTEtMi4zLTAuMS0zLjMmIzEwOyYjOTsmIzk7JiM5O2MwLjQtMC40LDAuOS0wLjcsMS41LTAuN2gwLjFjMS4zLDAsMi4zLDEuMSwyLjIsMi40QzExLjcsMTAuMSwxMS41LDEwLjYsMTEuMSwxMUwxMS4xLDExeiIvPiYjeGE7CQk8cGF0aCBjbGFzcz0ic3QwIiBkPSJNMTQuMSwxNS4zbDEuNCwwLjdjMC4yLDAuMSwwLjUsMC4xLDAuOCwwLjFjMC4yLTAuMSwwLjUtMC4zLDAuNi0wLjVsMS45LTMuNmMwLjItMC41LDAuMS0xLjEtMC40LTEuMyYjMTA7JiM5OyYjOTsmIzk7bC0xLjQtMC43YzAtMC4zLDAtMC41LDAtMC44YzAtMC4zLDAtMC41LTAuMS0wLjhMMTgsNy40YzAuNS0wLjMsMC42LTAuOSwwLjMtMS40YzAsMCwwLDAsMCwwbC0yLjItMy40Yy0wLjMtMC41LTAuOS0wLjYtMS40LTAuMyYjMTA7JiM5OyYjOTsmIzk7bC0xLjMsMC44Yy0wLjQtMC4zLTAuOS0wLjUtMS40LTAuN0wxMiwwLjljMC0wLjMtMC4xLTAuNS0wLjMtMC43QzExLjUsMC4xLDExLjIsMCwxMC45LDBMNi44LDAuMmMtMC41LDAtMSwwLjUtMC45LDFMNiwyLjgmIzEwOyYjOTsmIzk7JiM5O0M1LjUsMy4xLDUuMSwzLjMsNC43LDMuN0wzLjMsM0MzLjEsMi45LDIuOCwyLjksMi41LDIuOUMyLjMsMywyLjEsMy4yLDIsMy40TDAuMSw3LjFjLTAuMiwwLjUtMC4xLDEuMSwwLjQsMS4zbDEuNCwwLjcmIzEwOyYjOTsmIzk7JiM5O2MwLDAuMywwLDAuNSwwLDAuOGMwLDAuMywwLDAuNSwwLjEsMC44bC0xLjMsMC44Yy0wLjIsMC4xLTAuNCwwLjQtMC40LDAuNmMtMC4xLDAuMywwLDAuNSwwLjEsMC44bDIuMiwzLjQmIzEwOyYjOTsmIzk7JiM5O0MzLDE2LjgsMy42LDE2LjksNCwxNi42YzAsMCwwLDAsMCwwbDEuMy0wLjhjMC40LDAuMywwLjksMC41LDEuNCwwLjdMNi44LDE4YzAsMC41LDAuNSwwLjksMSwwLjloMC4xbDQuMS0wLjImIzEwOyYjOTsmIzk7JiM5O2MwLjMsMCwwLjUtMC4xLDAuNy0wLjNjMC4yLTAuMiwwLjMtMC41LDAuMi0wLjdsLTAuMS0xLjVDMTMuMywxNS45LDEzLjcsMTUuNiwxNC4xLDE1LjN6IE0xMS40LDE0LjZjLTAuNCwwLjItMC43LDAuNi0wLjYsMSYjMTA7JiM5OyYjOTsmIzk7bDAuMSwxLjJsLTIuMSwwLjFsLTAuMS0xLjJjMC0wLjQtMC4zLTAuOC0wLjctMC45Yy0wLjctMC4yLTEuNC0wLjUtMi0xYy0wLjMtMC4zLTAuOC0wLjMtMS4yLTAuMWwtMSwwLjdsLTEuMi0xLjhsMS0wLjcmIzEwOyYjOTsmIzk7JiM5O2MwLjQtMC4yLDAuNS0wLjcsMC40LTEuMUM0LDEwLjUsMy45LDEwLjEsMy45LDkuOGwwLDBjMC0wLjQsMC0wLjcsMC4xLTEuMWMwLTAuNC0wLjItMC44LTAuNS0xTDIuMyw3LjFsMS0xLjlsMS4xLDAuNiYjMTA7JiM5OyYjOTsmIzk7QzQuOCw2LDUuMyw1LjksNS42LDUuNmMwLjUtMC41LDEuMS0wLjksMS44LTEuMkM3LjgsNC4yLDgsMy44LDgsMy40TDcuOSwyLjJMMTAsMmwwLjEsMS4yYzAsMC40LDAuMywwLjgsMC43LDAuOSYjMTA7JiM5OyYjOTsmIzk7YzAuNywwLjIsMS40LDAuNSwyLDFjMC4zLDAuMywwLjgsMC4zLDEuMiwwLjFsMS0wLjdsMS4xLDEuOGwtMSwwLjdjLTAuNCwwLjItMC41LDAuNy0wLjQsMS4xYzAuMSwwLjQsMC4xLDAuNywwLjIsMS4xJiMxMDsmIzk7JiM5OyYjOTtjMCwwLjQsMCwwLjcsMCwxLjFjMCwwLjQsMC4yLDAuOCwwLjUsMWwxLjEsMC42bC0wLjksMS45bC0xLjEtMC42Yy0wLjQtMC4yLTAuOS0wLjEtMS4yLDAuMkMxMi44LDEzLjksMTIuMSwxNC4zLDExLjQsMTQuNnoiLz4mI3hhOwk8L2c+JiN4YTs8L2c+JiN4YTs8L3N2Zz4=;strokeWidth=0;" vertex="1" parent="1">
          <mxGeometry x="10" y="105" width="32.43" height="30" as="geometry" />
        </mxCell>
        <mxCell id="IVxMjmX394tLIWffqWMJ-36" value="Automated" style="text;html=1;strokeColor=none;fillColor=none;align=center;verticalAlign=middle;whiteSpace=wrap;rounded=0;" vertex="1" parent="1">
          <mxGeometry x="50" y="105" width="60" height="20" as="geometry" />
        </mxCell>
        <mxCell id="IVxMjmX394tLIWffqWMJ-37" value="Manual step" style="html=1;align=center;verticalAlign=top;rounded=1;absoluteArcSize=1;arcSize=10;dashed=0;fillColor=#fad7ac;strokeColor=#b46504;strokeWidth=0;" vertex="1" parent="1">
          <mxGeometry x="-10" y="170" width="150" height="50" as="geometry" />
        </mxCell>
      </root>
    </mxGraphModel>
  </diagram>
</mxfile>
